<?xml version="1.0" encoding="UTF-8"?>
<svg width="259px" height="58px" viewBox="0 0 259 58" version="1.1" xmlns="http://www.w3.org/2000/svg" xmlns:xlink="http://www.w3.org/1999/xlink">
    <!-- Generator: Sketch 55.2 (78181) - https://sketchapp.com -->
    <title>Gerken-Logo_RGB</title>
    <desc>Created with Sketch.</desc>
    <g id="Persönlicher-Bereich_closed" stroke="none" stroke-width="1" fill="none" fill-rule="evenodd">
        <g id="3:-Formular-(registrierung)-DP" transform="translate(-172.000000, -42.000000)">
            <g id="Gerken-Logo_RGB" transform="translate(172.000000, 42.000000)">
                <rect id="Rectangle" x="0" y="0" width="259" height="66"></rect>
                <rect id="Rectangle" fill="#E3000F" fill-rule="nonzero" x="0" y="0" width="259" height="43"></rect>
                <polygon id="Path" fill="#FFFFFF" fill-rule="nonzero" points="43.1349957 36 15.966466 36 11 31.0729335 11 10.9918963 16.0318143 6 43.8865004 6 49 11.0729335 49 14.0551053 39.1487532 14.0551053 37.2699914 12.191248 22.1255374 12.191248 20.3284609 13.9740681 20.3284609 28.0097245 21.9131556 29.5818476 37.2699914 29.5818476 39.1487532 27.7179903 39.1487532 24.0713128 31.1762683 24.0713128 31.1762683 17.4910859 48.9346518 17.4910859 48.9346518 30.1004862"></polygon>
                <polygon id="Path" fill="#FFFFFF" fill-rule="nonzero" points="53 6 53 36 88 36 88 29.5818476 62.3792945 29.5818476 62.3792945 24.0713128 81.2821805 24.0713128 81.2821805 17.4910859 62.3151626 17.4910859 62.3151626 12.191248 87.9198351 12.191248 87.9198351 6"></polygon>
                <path d="M100.844342,12.9367909 L100.844342,18.4635332 L118.236012,18.4635332 L119.663441,17.0534846 L119.663441,14.363047 L118.219605,12.9367909 L100.844342,12.9367909 L100.844342,12.9367909 Z M91,6 L91,36 L100.827934,36 L100.827934,24.0713128 L107.193942,24.0713128 L119.269668,36 L130,36 L117.842238,23.9902755 L122.452671,23.9902755 L129.40934,17.1183144 L129.40934,11.2188006 L124.142617,6 L91,6 L91,6 Z" id="Shape" fill="#FFFFFF"></path>
                <polygon id="Path" fill="#FFFFFF" fill-rule="nonzero" points="133 6.08081897 133 36 143.080855 36 143.080855 34.0765086 151.135735 26.1077586 161.151236 36 172 36 156.788856 20.9676724 171.918307 6 161.232928 6 143.080855 23.9418103 143.080855 6.08081897"></polygon>
                <polygon id="Path" fill="#FFFFFF" fill-rule="nonzero" points="174 6 174 36 209 36 209 29.5818476 183.391026 29.5818476 183.391026 24.0713128 202.285256 24.0713128 202.285256 17.4910859 183.326923 17.4910859 183.326923 12.191248 208.919872 12.191248 208.919872 6"></polygon>
                <polygon id="Path" fill="#FFFFFF" fill-rule="nonzero" points="212 6 212 36 222.136577 36 222.136577 17.458671 240.674349 36 250 36 250 6 240.528382 6 240.528382 24.1199352 222.396073 6"></polygon>
                <polygon id="Path" fill="#E3000F" fill-rule="nonzero" points="16 56.5785124 18.5776398 54.1652893 18.5776398 50 21 50 21 54.6280992 17.3975155 58 14.6024845 58 11 54.6280992 11 50 13.4223602 50 13.4223602 54.1652893"></polygon>
                <path d="M36.5363489,53.0061602 L41.0597738,53.0061602 L41.4636511,52.5790554 L41.4636511,52.1848049 L41.0597738,51.7741273 L36.5363489,51.7741273 L36.5363489,53.0061602 L36.5363489,53.0061602 Z M34,58 L34,50 L42.6268174,50 L44,51.4784394 L44,53.0061602 L42.174475,54.7802875 L41.1082391,54.7802875 L44,58 L41.4636511,58 L38.5557351,54.7802875 L36.5201939,54.7802875 L36.5201939,58 L34,58 L34,58 Z" id="Shape" fill="#E3000F"></path>
                <path d="M187.682513,54.9814433 L187.682513,56.2185567 L191.994907,56.2185567 L192.402377,55.7896907 L192.402377,55.4103093 L191.994907,54.9814433 L187.682513,54.9814433 L187.682513,54.9814433 Z M187.682513,51.7814433 L187.682513,53.0185567 L191.994907,53.0185567 L192.402377,52.5896907 L192.402377,52.1938144 L191.994907,51.7814433 L187.682513,51.7814433 L187.682513,51.7814433 Z M185,58 L185,50 L193.539898,50 L195,51.4020619 L195,52.8701031 L193.845501,53.9752577 L195,55.0804124 L195,56.4494845 L193.319185,58 L185,58 L185,58 Z" id="Shape" fill="#E3000F"></path>
                <path d="M125.552504,53.0061602 L130.075929,53.0061602 L130.463651,52.5790554 L130.463651,52.1848049 L130.075929,51.7741273 L125.552504,51.7741273 L125.552504,53.0061602 L125.552504,53.0061602 Z M123.016155,58 L123,50 L131.626817,50 L133,51.4784394 L133,53.0061602 L131.19063,54.7802875 L130.124394,54.7802875 L133,58 L130.463651,58 L127.57189,54.7802875 L125.552504,54.7802875 L125.552504,58 L123.016155,58 L123.016155,58 Z" id="Shape" fill="#E3000F"></path>
                <path d="M136.694915,51.7814433 L136.694915,53.0185567 L140.983051,53.0185567 L141.40678,52.5896907 L141.40678,52.1938144 L140.983051,51.7814433 L136.694915,51.7814433 L136.694915,51.7814433 Z M136.694915,54.9814433 L136.694915,56.2185567 L140.983051,56.2185567 L141.40678,55.7896907 L141.40678,55.4103093 L140.983051,54.9814433 L136.694915,54.9814433 L136.694915,54.9814433 Z M134,58 L134,50 L142.542373,50 L144,51.4020619 L144,52.8701031 L142.830508,53.9752577 L144,55.0804124 L144,56.4494845 L142.305085,58 L134,58 L134,58 Z" id="Shape" fill="#E3000F"></path>
                <path d="M115.625407,51.5670103 L115.104235,53.3319588 L116.912052,53.3319588 L116.390879,51.5670103 L115.625407,51.5670103 L115.625407,51.5670103 Z M114.631922,54.8824742 L113.57329,58 L111,58 L113.736156,50 L118.263844,50 L121,58 L118.42671,58 L117.368078,54.8824742 L114.631922,54.8824742 L114.631922,54.8824742 Z" id="Shape" fill="#E3000F"></path>
                <polygon id="Path" fill="#E3000F" fill-rule="nonzero" points="23 58 23 50 32 50 32 51.768595 25.4041096 51.768595 25.4041096 53.0082645 30.0736301 53.0082645 30.0736301 54.8099174 25.4041096 54.8099174 25.4041096 56.231405 32 56.231405 32 58"></polygon>
                <polygon id="Path" fill="#E3000F" fill-rule="nonzero" points="51.4918999 56.446281 48.5434462 53.5041322 48.5434462 58 46 58 46 50 47.8306333 50 51.5081001 53.5041322 55.1693667 50 57 50 57 58 54.4403535 58 54.4565538 53.5041322"></polygon>
                <polygon id="Path" fill="#E3000F" fill-rule="nonzero" points="58 58 58 56.231405 60.2079439 56.231405 60.2242991 51.768595 58.0163551 51.768595 58 50 64.9836449 50 64.9836449 51.768595 62.7920561 51.768595 62.7920561 56.231405 65 56.231405 65 58"></polygon>
                <polygon id="Path" fill="#E3000F" fill-rule="nonzero" points="67 58 67 50 76 50 76 51.768595 69.4123711 51.768595 69.4123711 53.0082645 74.0979381 53.0082645 74.0979381 54.8099174 69.4123711 54.8099174 69.4123711 56.231405 76 56.231405 76 58"></polygon>
                <polygon id="Path" fill="#E3000F" fill-rule="nonzero" points="80.205036 58 80.221223 51.768595 77 51.768595 77 50 86 50 86 51.768595 82.778777 51.768595 82.7625899 58"></polygon>
                <polygon id="Path" fill="#E3000F" fill-rule="nonzero" points="88 58 88 50 97 50 97 51.768595 90.4349315 51.768595 90.4349315 53.0082645 95.1044521 53.0082645 95.1044521 54.8099174 90.4349315 54.8099174 90.4349315 56.231405 97 56.231405 97 58"></polygon>
                <polygon id="Path" fill="#E3000F" fill-rule="nonzero" points="102.199282 58 102.183124 51.785124 99 51.768595 99 50 108 50 108 51.768595 104.768402 51.768595 104.768402 58"></polygon>
                <polygon id="Path" fill="#E3000F" fill-rule="nonzero" points="243.370884 53.338843 243.370884 58 241 58 241 50 242.965338 50 247.644714 54.661157 247.644714 50 250 50 250 58 248.065858 58"></polygon>
                <polygon id="Path" fill="#E3000F" fill-rule="nonzero" points="230 58 230 50 239 50 239 51.768595 232.408233 51.768595 232.408233 53.0082645 237.085763 53.0082645 237.085763 54.8099174 232.408233 54.8099174 232.408233 56.231405 239 56.231405 239 58"></polygon>
                <polygon id="Path" fill="#E3000F" fill-rule="nonzero" points="221.375 53.338843 221.375 58 219 58 219 50 220.953125 50 225.625 54.661157 225.625 50 228 50 228 58 226.046875 58"></polygon>
                <polygon id="Path" fill="#E3000F" fill-rule="nonzero" points="210.665535 54.892562 210.665535 58 208 58 208 50 210.665535 50 210.665535 53.338843 215.317487 53.338843 215.334465 50 218 50 217.983022 58 215.317487 58 215.334465 54.892562"></polygon>
                <polygon id="Path" fill="#E3000F" fill-rule="nonzero" points="197.639073 58 196 56.446281 196 50 198.549669 50 198.549669 55.3719008 199.642384 56.446281 202.357616 56.446281 203.450331 55.3719008 203.450331 50 206 50 206 56.446281 204.360927 58"></polygon>
                <polygon id="Path" fill="#E3000F" fill-rule="nonzero" points="199.388889 50 199 49.7209302 199 49.2790698 199.388889 49 200.611111 49 200.986111 49.2790698 201 49.7209302 200.611111 50"></polygon>
                <polygon id="Path" fill="#E3000F" fill-rule="nonzero" points="203.608392 50 204 49.7209302 204 49.2790698 203.608392 49 202.391608 49 202 49.2790698 202 49.7209302 202.391608 50"></polygon>
                <polygon id="Path" fill="#E3000F" fill-rule="nonzero" points="175.556684 58 174 56.446281 174 55.7190083 176.690355 55.7190083 177.147208 56.231405 181.038917 56.231405 181.394247 56 181.394247 55.322314 180.920474 54.9752066 175.692047 54.9752066 174 53.1570248 174 51.5702479 175.43824 50 182.510998 50 184 51.3884298 184 52.2809917 181.394247 52.2809917 180.76819 51.768595 176.944162 51.768595 176.690355 51.9834711 176.690355 52.661157 177.147208 53.0247934 182.595601 53.0247934 184 54.7272727 184 56.2479339 182.443316 58"></polygon>
                <polygon id="Path" fill="#E3000F" fill-rule="nonzero" points="167.205036 58 167.23741 51.768595 164 51.768595 164 50 173 50 173 51.768595 169.794964 51.768595 169.778777 58"></polygon>
                <polygon id="Path" fill="#E3000F" fill-rule="nonzero" points="156 58 156.016355 56.231405 158.224299 56.231405 158.224299 51.768595 156.016355 51.768595 156 50 162.983645 50 162.983645 51.768595 160.775701 51.768595 160.775701 56.231405 163 56.231405 162.983645 58"></polygon>
                <polygon id="Path" fill="#E3000F" fill-rule="nonzero" points="145 58 145 50 154 50 154 51.768595 147.419521 51.768595 147.419521 53.0082645 152.07363 53.0082645 152.07363 54.8099174 147.419521 54.8099174 147.419521 56.231405 154 56.231405 154 58"></polygon>
            </g>
        </g>
    </g>
</svg>