<?xml version="1.0" encoding="utf-8"?>
<!-- Generator: Adobe Illustrator 14.0.0, SVG Export Plug-In . SVG Version: 6.00 Build 43363)  -->
<!DOCTYPE svg PUBLIC "-//W3C//DTD SVG 1.1//EN" "http://www.w3.org/Graphics/SVG/1.1/DTD/svg11.dtd">
<svg version="1.1" id="Ebene_1" xmlns="http://www.w3.org/2000/svg" xmlns:xlink="http://www.w3.org/1999/xlink" x="0px" y="0px"
	 width="200px" height="4180px" viewBox="0 0 200 4180" enable-background="new 0 0 200 4180" xml:space="preserve">
<title>Group 249</title>
<desc>Created with Sketch.</desc>
<g id="Persönlicher-Bereich_closed">
	<g id="_x33_:-Formular-_x28_registrierung_x29_-DP" transform="translate(-1263.000000, -509.000000)">
		<g id="Group-249" transform="translate(1263.000000, 510.000000)">
			<path id="Fill-1" fill="#F0F0F0" d="M7.956,4163.09c0-4.742,3.843-8.588,8.59-8.588c4.744,0,8.59,3.846,8.59,8.588
				c0,4.744-3.847,8.59-8.59,8.59C11.798,4171.68,7.956,4167.834,7.956,4163.09 M1,4163.09c0-8.588,6.958-15.545,15.545-15.545
				c8.584,0,15.545,6.957,15.545,15.545s-6.961,15.547-15.545,15.547C7.958,4178.637,1,4171.678,1,4163.09"/>
			<path id="Fill-3" fill="#F0F0F0" d="M174.863,4163.09c0-4.742,3.845-8.588,8.591-8.588c4.743,0,8.592,3.846,8.592,8.588
				c0,4.744-3.849,8.59-8.592,8.59C178.708,4171.68,174.863,4167.834,174.863,4163.09 M167.909,4163.09
				c0-8.588,6.958-15.545,15.545-15.545c8.585,0,15.546,6.957,15.546,15.545s-6.961,15.547-15.546,15.547
				C174.867,4178.637,167.909,4171.678,167.909,4163.09"/>
			<path fill="#F0F0F0" d="M15.728,4129.547c-1.291,0-2.514-0.77-3.031-2.039c-0.683-1.674,0.121-3.582,1.794-4.266l168.546-68.727
				c1.675-0.691,3.585,0.121,4.266,1.795c0.683,1.672-0.12,3.582-1.795,4.264l-168.544,68.729
				C16.558,4129.469,16.14,4129.547,15.728,4129.547L15.728,4129.547z"/>
			<path fill="#F0F0F0" d="M184.271,4129.547c-0.411,0-0.83-0.078-1.234-0.244l-168.546-68.729
				c-1.673-0.682-2.477-2.592-1.794-4.264c0.683-1.676,2.594-2.484,4.267-1.795l168.544,68.727c1.675,0.684,2.478,2.592,1.795,4.266
				C186.786,4128.777,185.562,4129.547,184.271,4129.547L184.271,4129.547z"/>
			<path fill="#F0F0F0" d="M15.728,4062.455c-1.291,0-2.514-0.77-3.031-2.039c-0.683-1.672,0.121-3.582,1.794-4.264l168.546-68.729
				c1.675-0.691,3.585,0.121,4.266,1.795c0.683,1.674-0.12,3.582-1.795,4.266l-168.544,68.727
				C16.558,4062.377,16.14,4062.455,15.728,4062.455L15.728,4062.455z"/>
			<path fill="#F0F0F0" d="M184.271,4062.455c-0.411,0-0.83-0.078-1.234-0.244l-168.546-68.727
				c-1.673-0.684-2.477-2.592-1.794-4.266c0.683-1.674,2.594-2.482,4.267-1.795l168.544,68.729c1.675,0.682,2.478,2.592,1.795,4.264
				C186.786,4061.686,185.562,4062.455,184.271,4062.455L184.271,4062.455z"/>
			<path fill="#F0F0F0" d="M15.728,3993.729c-1.291,0-2.514-0.77-3.031-2.039c-0.683-1.674,0.121-3.582,1.794-4.266l168.546-68.727
				c1.675-0.691,3.585,0.121,4.266,1.795c0.683,1.672-0.12,3.582-1.795,4.264l-168.544,68.729
				C16.558,3993.65,16.14,3993.729,15.728,3993.729L15.728,3993.729z"/>
			<path fill="#F0F0F0" d="M184.271,3993.729c-0.411,0-0.83-0.078-1.234-0.244l-168.546-68.729
				c-1.673-0.682-2.477-2.592-1.794-4.264c0.683-1.674,2.594-2.484,4.267-1.795l168.544,68.727c1.675,0.684,2.478,2.592,1.795,4.266
				C186.786,3992.959,185.562,3993.729,184.271,3993.729L184.271,3993.729z"/>
			<path fill="#F0F0F0" d="M15.728,3923.365c-1.291,0-2.514-0.771-3.031-2.039c-0.683-1.674,0.121-3.584,1.794-4.266l168.546-68.727
				c1.675-0.693,3.585,0.121,4.266,1.795c0.683,1.672-0.12,3.582-1.795,4.264l-168.544,68.729
				C16.558,3923.287,16.14,3923.365,15.728,3923.365L15.728,3923.365z"/>
			<path fill="#F0F0F0" d="M184.271,3923.365c-0.411,0-0.83-0.078-1.234-0.244l-168.546-68.729
				c-1.673-0.682-2.477-2.592-1.794-4.264c0.683-1.676,2.594-2.48,4.267-1.795l168.544,68.727c1.675,0.682,2.478,2.592,1.795,4.266
				C186.786,3922.594,185.562,3923.365,184.271,3923.365L184.271,3923.365z"/>
			<path fill="#F0F0F0" d="M15.728,3854.637c-1.291,0-2.514-0.77-3.031-2.039c-0.683-1.672,0.121-3.582,1.794-4.264l168.546-68.729
				c1.675-0.691,3.585,0.123,4.266,1.795c0.683,1.674-0.12,3.584-1.795,4.266l-168.544,68.727
				C16.558,3854.559,16.14,3854.637,15.728,3854.637L15.728,3854.637z"/>
			<path fill="#F0F0F0" d="M184.271,3854.637c-0.411,0-0.83-0.078-1.234-0.244l-168.546-68.727
				c-1.673-0.682-2.477-2.592-1.794-4.266c0.683-1.674,2.594-2.48,4.267-1.795l168.544,68.729c1.675,0.682,2.478,2.592,1.795,4.264
				C186.786,3853.867,185.562,3854.637,184.271,3854.637L184.271,3854.637z"/>
			<path fill="#F0F0F0" d="M15.728,3785.91c-1.291,0-2.514-0.77-3.031-2.039c-0.683-1.674,0.121-3.582,1.794-4.266l168.546-68.727
				c1.675-0.689,3.585,0.121,4.266,1.795c0.683,1.672-0.12,3.582-1.795,4.266l-168.544,68.727
				C16.558,3785.832,16.14,3785.91,15.728,3785.91L15.728,3785.91z"/>
			<path fill="#F0F0F0" d="M184.271,3785.91c-0.411,0-0.83-0.078-1.234-0.244l-168.546-68.727c-1.673-0.684-2.477-2.594-1.794-4.266
				c0.683-1.676,2.594-2.482,4.267-1.795l168.544,68.727c1.675,0.684,2.478,2.592,1.795,4.266
				C186.786,3785.141,185.562,3785.91,184.271,3785.91L184.271,3785.91z"/>
			<path fill="#F0F0F0" d="M15.728,3717.184c-1.291,0-2.514-0.771-3.031-2.039c-0.683-1.674,0.121-3.584,1.794-4.266l168.546-68.727
				c1.675-0.689,3.585,0.121,4.266,1.793c0.683,1.674-0.12,3.584-1.795,4.266l-168.544,68.729
				C16.558,3717.105,16.14,3717.184,15.728,3717.184L15.728,3717.184z"/>
			<path fill="#F0F0F0" d="M184.271,3717.184c-0.411,0-0.83-0.078-1.234-0.244l-168.546-68.729
				c-1.673-0.682-2.477-2.592-1.794-4.266c0.683-1.674,2.594-2.48,4.267-1.793l168.544,68.727c1.675,0.682,2.478,2.592,1.795,4.266
				C186.786,3716.412,185.562,3717.184,184.271,3717.184L184.271,3717.184z"/>
			<path fill="#F0F0F0" d="M15.728,3646.82c-1.291,0-2.514-0.771-3.031-2.039c-0.683-1.674,0.121-3.584,1.794-4.266l168.546-68.729
				c1.675-0.691,3.585,0.123,4.266,1.795c0.683,1.674-0.12,3.584-1.795,4.266l-168.544,68.727
				C16.558,3646.74,16.14,3646.82,15.728,3646.82L15.728,3646.82z"/>
			<path fill="#F0F0F0" d="M184.271,3646.82c-0.411,0-0.83-0.08-1.234-0.246l-168.546-68.727c-1.673-0.682-2.477-2.592-1.794-4.266
				c0.683-1.674,2.594-2.48,4.267-1.795l168.544,68.729c1.675,0.682,2.478,2.592,1.795,4.266
				C186.786,3646.049,185.562,3646.82,184.271,3646.82L184.271,3646.82z"/>
			<path fill="#F0F0F0" d="M15.728,3578.092c-1.291,0-2.514-0.77-3.031-2.039c-0.683-1.672,0.121-3.582,1.794-4.266l168.546-68.727
				c1.675-0.689,3.585,0.121,4.266,1.795c0.683,1.674-0.12,3.582-1.795,4.266l-168.544,68.727
				C16.558,3578.014,16.14,3578.092,15.728,3578.092L15.728,3578.092z"/>
			<path fill="#F0F0F0" d="M184.271,3578.092c-0.411,0-0.83-0.078-1.234-0.244l-168.546-68.727
				c-1.673-0.684-2.477-2.592-1.794-4.266c0.683-1.676,2.594-2.484,4.267-1.795l168.544,68.727c1.675,0.684,2.478,2.594,1.795,4.266
				C186.786,3577.322,185.562,3578.092,184.271,3578.092L184.271,3578.092z"/>
			<path fill="#F0F0F0" d="M15.728,3509.365c-1.291,0-2.514-0.771-3.031-2.039c-0.683-1.674,0.121-3.584,1.794-4.266l168.546-68.727
				c1.675-0.689,3.585,0.121,4.266,1.795c0.683,1.672-0.12,3.582-1.795,4.264l-168.544,68.729
				C16.558,3509.287,16.14,3509.365,15.728,3509.365L15.728,3509.365z"/>
			<path fill="#F0F0F0" d="M184.271,3509.365c-0.411,0-0.83-0.078-1.234-0.244l-168.546-68.729
				c-1.673-0.682-2.477-2.592-1.794-4.264c0.683-1.676,2.594-2.484,4.267-1.795l168.544,68.727c1.675,0.682,2.478,2.592,1.795,4.266
				C186.786,3508.594,185.562,3509.365,184.271,3509.365L184.271,3509.365z"/>
			<path fill="#F0F0F0" d="M15.728,3440.637c-1.291,0-2.514-0.77-3.031-2.039c-0.683-1.672,0.121-3.582,1.794-4.264l168.546-68.729
				c1.675-0.689,3.585,0.123,4.266,1.795c0.683,1.674-0.12,3.584-1.795,4.266l-168.544,68.727
				C16.558,3440.559,16.14,3440.637,15.728,3440.637L15.728,3440.637z"/>
			<path fill="#F0F0F0" d="M184.271,3440.637c-0.411,0-0.83-0.078-1.234-0.244l-168.546-68.727
				c-1.673-0.682-2.477-2.592-1.794-4.266c0.683-1.674,2.594-2.482,4.267-1.795l168.544,68.729c1.675,0.682,2.478,2.592,1.795,4.264
				C186.786,3439.867,185.562,3440.637,184.271,3440.637L184.271,3440.637z"/>
			<path fill="#F0F0F0" d="M15.728,3370.273c-1.291,0-2.514-0.77-3.031-2.039c-0.683-1.672,0.121-3.582,1.794-4.264l168.546-68.729
				c1.675-0.688,3.585,0.121,4.266,1.795c0.683,1.674-0.12,3.582-1.795,4.266l-168.544,68.727
				C16.558,3370.195,16.14,3370.273,15.728,3370.273L15.728,3370.273z"/>
			<path fill="#F0F0F0" d="M184.271,3370.273c-0.411,0-0.83-0.078-1.234-0.244l-168.546-68.727
				c-1.673-0.684-2.477-2.592-1.794-4.266c0.683-1.674,2.594-2.48,4.267-1.795l168.544,68.729c1.675,0.682,2.478,2.592,1.795,4.264
				C186.786,3369.504,185.562,3370.273,184.271,3370.273L184.271,3370.273z"/>
			<path fill="#F0F0F0" d="M15.728,3301.547c-1.291,0-2.514-0.77-3.031-2.039c-0.683-1.674,0.121-3.582,1.794-4.266l168.546-68.727
				c1.675-0.689,3.585,0.121,4.266,1.795c0.683,1.672-0.12,3.582-1.795,4.264l-168.544,68.729
				C16.558,3301.469,16.14,3301.547,15.728,3301.547L15.728,3301.547z"/>
			<path fill="#F0F0F0" d="M184.271,3301.547c-0.411,0-0.83-0.078-1.234-0.244l-168.546-68.729
				c-1.673-0.682-2.477-2.592-1.794-4.264c0.683-1.676,2.594-2.482,4.267-1.795l168.544,68.727c1.675,0.684,2.478,2.592,1.795,4.266
				C186.786,3300.777,185.562,3301.547,184.271,3301.547L184.271,3301.547z"/>
			<path fill="#F0F0F0" d="M15.728,3232.82c-1.291,0-2.514-0.771-3.031-2.039c-0.683-1.674,0.121-3.584,1.794-4.266l168.546-68.727
				c1.675-0.691,3.585,0.121,4.266,1.793c0.683,1.674-0.12,3.584-1.795,4.266l-168.544,68.727
				C16.558,3232.742,16.14,3232.82,15.728,3232.82L15.728,3232.82z"/>
			<path fill="#F0F0F0" d="M184.271,3232.82c-0.411,0-0.83-0.078-1.234-0.246l-168.546-68.727c-1.673-0.682-2.477-2.592-1.794-4.266
				c0.683-1.674,2.594-2.48,4.267-1.793l168.544,68.727c1.675,0.682,2.478,2.592,1.795,4.266
				C186.786,3232.049,185.562,3232.82,184.271,3232.82L184.271,3232.82z"/>
			<path fill="#F0F0F0" d="M15.728,3164.092c-1.291,0-2.514-0.77-3.031-2.039c-0.683-1.672,0.121-3.582,1.794-4.264l168.546-68.729
				c1.675-0.689,3.585,0.121,4.266,1.795c0.683,1.674-0.12,3.582-1.795,4.266l-168.544,68.727
				C16.558,3164.014,16.14,3164.092,15.728,3164.092L15.728,3164.092z"/>
			<path fill="#F0F0F0" d="M184.271,3164.092c-0.411,0-0.83-0.078-1.234-0.244l-168.546-68.727
				c-1.673-0.684-2.477-2.592-1.794-4.266c0.683-1.674,2.594-2.482,4.267-1.795l168.544,68.729c1.675,0.682,2.478,2.592,1.795,4.264
				C186.786,3163.322,185.562,3164.092,184.271,3164.092L184.271,3164.092z"/>
			<path fill="#F0F0F0" d="M15.728,3093.729c-1.291,0-2.514-0.77-3.031-2.039c-0.683-1.674,0.121-3.582,1.794-4.266l168.546-68.727
				c1.675-0.689,3.585,0.121,4.266,1.795c0.683,1.672-0.12,3.582-1.795,4.266l-168.544,68.727
				C16.558,3093.65,16.14,3093.729,15.728,3093.729L15.728,3093.729z"/>
			<path fill="#F0F0F0" d="M184.271,3093.729c-0.411,0-0.83-0.078-1.234-0.244l-168.546-68.727
				c-1.673-0.684-2.477-2.594-1.794-4.266c0.683-1.676,2.594-2.482,4.267-1.795l168.544,68.727c1.675,0.684,2.478,2.592,1.795,4.266
				C186.786,3092.959,185.562,3093.729,184.271,3093.729L184.271,3093.729z"/>
			<path fill="#F0F0F0" d="M15.728,3025.002c-1.291,0-2.514-0.771-3.031-2.039c-0.683-1.674,0.121-3.584,1.794-4.266l168.546-68.727
				c1.675-0.691,3.585,0.121,4.266,1.793c0.683,1.674-0.12,3.584-1.795,4.266l-168.544,68.729
				C16.558,3024.924,16.14,3025.002,15.728,3025.002L15.728,3025.002z"/>
			<path fill="#F0F0F0" d="M184.271,3025.002c-0.411,0-0.83-0.078-1.234-0.244l-168.546-68.729
				c-1.673-0.682-2.477-2.592-1.794-4.266c0.683-1.674,2.594-2.482,4.267-1.793l168.544,68.727c1.675,0.682,2.478,2.592,1.795,4.266
				C186.786,3024.23,185.562,3025.002,184.271,3025.002L184.271,3025.002z"/>
			<path fill="#F0F0F0" d="M15.728,2956.273c-1.291,0-2.514-0.77-3.031-2.039c-0.683-1.672,0.121-3.582,1.794-4.264l168.546-68.729
				c1.675-0.689,3.585,0.121,4.266,1.795c0.683,1.674-0.12,3.582-1.795,4.266l-168.544,68.727
				C16.558,2956.195,16.14,2956.273,15.728,2956.273L15.728,2956.273z"/>
			<path fill="#F0F0F0" d="M184.271,2956.273c-0.411,0-0.83-0.078-1.234-0.244l-168.546-68.727
				c-1.673-0.684-2.477-2.592-1.794-4.266c0.683-1.674,2.594-2.482,4.267-1.795l168.544,68.729c1.675,0.682,2.478,2.592,1.795,4.264
				C186.786,2955.504,185.562,2956.273,184.271,2956.273L184.271,2956.273z"/>
			<path fill="#F0F0F0" d="M15.728,2887.547c-1.291,0-2.514-0.77-3.031-2.039c-0.683-1.674,0.121-3.582,1.794-4.266l168.546-68.727
				c1.675-0.691,3.585,0.121,4.266,1.795c0.683,1.672-0.12,3.582-1.795,4.264l-168.544,68.729
				C16.558,2887.469,16.14,2887.547,15.728,2887.547L15.728,2887.547z"/>
			<path fill="#F0F0F0" d="M184.271,2887.547c-0.411,0-0.83-0.078-1.234-0.244l-168.546-68.729
				c-1.673-0.682-2.477-2.592-1.794-4.264c0.683-1.674,2.594-2.484,4.267-1.795l168.544,68.727c1.675,0.684,2.478,2.592,1.795,4.266
				C186.786,2886.777,185.562,2887.547,184.271,2887.547L184.271,2887.547z"/>
			<path fill="#F0F0F0" d="M15.728,2818.82c-1.291,0-2.514-0.771-3.031-2.039c-0.683-1.674,0.121-3.584,1.794-4.266l168.546-68.727
				c1.675-0.691,3.585,0.121,4.266,1.793c0.683,1.674-0.12,3.584-1.795,4.266l-168.544,68.727
				C16.558,2818.742,16.14,2818.82,15.728,2818.82L15.728,2818.82z"/>
			<path fill="#F0F0F0" d="M184.271,2818.82c-0.411,0-0.83-0.078-1.234-0.246l-168.546-68.727c-1.673-0.682-2.477-2.592-1.794-4.266
				c0.683-1.672,2.594-2.479,4.267-1.793l168.544,68.727c1.675,0.682,2.478,2.592,1.795,4.266
				C186.786,2818.049,185.562,2818.82,184.271,2818.82L184.271,2818.82z"/>
			<path fill="#F0F0F0" d="M15.728,2748.455c-1.291,0-2.514-0.77-3.031-2.039c-0.683-1.672,0.121-3.582,1.794-4.264l168.546-68.729
				c1.675-0.689,3.585,0.123,4.266,1.795c0.683,1.674-0.12,3.584-1.795,4.266l-168.544,68.727
				C16.558,2748.377,16.14,2748.455,15.728,2748.455L15.728,2748.455z"/>
			<path fill="#F0F0F0" d="M184.271,2748.455c-0.411,0-0.83-0.078-1.234-0.244l-168.546-68.727
				c-1.673-0.682-2.477-2.592-1.794-4.266c0.683-1.674,2.594-2.48,4.267-1.795l168.544,68.729c1.675,0.682,2.478,2.592,1.795,4.264
				C186.786,2747.686,185.562,2748.455,184.271,2748.455L184.271,2748.455z"/>
			<path fill="#F0F0F0" d="M15.728,2679.729c-1.291,0-2.514-0.77-3.031-2.039c-0.683-1.674,0.121-3.582,1.794-4.266l168.546-68.727
				c1.675-0.689,3.585,0.121,4.266,1.795c0.683,1.672-0.12,3.582-1.795,4.266l-168.544,68.727
				C16.558,2679.65,16.14,2679.729,15.728,2679.729L15.728,2679.729z"/>
			<path fill="#F0F0F0" d="M184.271,2679.729c-0.411,0-0.83-0.078-1.234-0.244l-168.546-68.727
				c-1.673-0.684-2.477-2.594-1.794-4.266c0.683-1.676,2.594-2.482,4.267-1.795l168.544,68.727c1.675,0.684,2.478,2.592,1.795,4.266
				C186.786,2678.959,185.562,2679.729,184.271,2679.729L184.271,2679.729z"/>
			<path fill="#F0F0F0" d="M15.728,2611.002c-1.291,0-2.514-0.771-3.031-2.039c-0.683-1.674,0.121-3.584,1.794-4.266l168.546-68.727
				c1.675-0.691,3.585,0.121,4.266,1.793c0.683,1.674-0.12,3.584-1.795,4.266l-168.544,68.729
				C16.558,2610.924,16.14,2611.002,15.728,2611.002L15.728,2611.002z"/>
			<path fill="#F0F0F0" d="M184.271,2611.002c-0.411,0-0.83-0.078-1.234-0.244l-168.546-68.729
				c-1.673-0.682-2.477-2.592-1.794-4.266c0.683-1.674,2.594-2.48,4.267-1.793l168.544,68.727c1.675,0.682,2.478,2.592,1.795,4.266
				C186.786,2610.23,185.562,2611.002,184.271,2611.002L184.271,2611.002z"/>
			<path fill="#F0F0F0" d="M15.728,2542.273c-1.291,0-2.514-0.77-3.031-2.039c-0.683-1.672,0.121-3.582,1.794-4.264l168.546-68.729
				c1.675-0.691,3.585,0.121,4.266,1.795c0.683,1.674-0.12,3.582-1.795,4.266l-168.544,68.727
				C16.558,2542.195,16.14,2542.273,15.728,2542.273L15.728,2542.273z"/>
			<path fill="#F0F0F0" d="M184.271,2542.273c-0.411,0-0.83-0.078-1.234-0.244l-168.546-68.727
				c-1.673-0.684-2.477-2.592-1.794-4.266c0.683-1.674,2.594-2.482,4.267-1.795l168.544,68.729c1.675,0.682,2.478,2.592,1.795,4.264
				C186.786,2541.504,185.562,2542.273,184.271,2542.273L184.271,2542.273z"/>
			<path fill="#F0F0F0" d="M15.728,2471.91c-1.291,0-2.514-0.77-3.031-2.039c-0.683-1.672,0.121-3.582,1.794-4.266l168.546-68.727
				c1.675-0.689,3.585,0.121,4.266,1.795c0.683,1.674-0.12,3.582-1.795,4.266l-168.544,68.727
				C16.558,2471.832,16.14,2471.91,15.728,2471.91L15.728,2471.91z"/>
			<path fill="#F0F0F0" d="M184.271,2471.91c-0.411,0-0.83-0.078-1.234-0.244l-168.546-68.727c-1.673-0.684-2.477-2.592-1.794-4.266
				c0.683-1.676,2.594-2.484,4.267-1.795l168.544,68.727c1.675,0.684,2.478,2.594,1.795,4.266
				C186.786,2471.141,185.562,2471.91,184.271,2471.91L184.271,2471.91z"/>
			<path fill="#F0F0F0" d="M15.728,2403.184c-1.291,0-2.514-0.771-3.031-2.039c-0.683-1.674,0.121-3.584,1.794-4.266l168.546-68.727
				c1.675-0.693,3.585,0.121,4.266,1.795c0.683,1.672-0.12,3.582-1.795,4.264l-168.544,68.729
				C16.558,2403.105,16.14,2403.184,15.728,2403.184L15.728,2403.184z"/>
			<path fill="#F0F0F0" d="M184.271,2403.184c-0.411,0-0.83-0.078-1.234-0.244l-168.546-68.729
				c-1.673-0.682-2.477-2.592-1.794-4.264c0.683-1.676,2.594-2.484,4.267-1.795l168.544,68.727c1.675,0.682,2.478,2.592,1.795,4.266
				C186.786,2402.412,185.562,2403.184,184.271,2403.184L184.271,2403.184z"/>
			<path fill="#F0F0F0" d="M15.728,2334.455c-1.291,0-2.514-0.77-3.031-2.039c-0.683-1.672,0.121-3.582,1.794-4.264l168.546-68.729
				c1.675-0.691,3.585,0.123,4.266,1.795c0.683,1.674-0.12,3.584-1.795,4.266l-168.544,68.727
				C16.558,2334.377,16.14,2334.455,15.728,2334.455L15.728,2334.455z"/>
			<path fill="#F0F0F0" d="M184.271,2334.455c-0.411,0-0.83-0.078-1.234-0.244l-168.546-68.727
				c-1.673-0.682-2.477-2.592-1.794-4.266c0.683-1.674,2.594-2.48,4.267-1.795l168.544,68.729c1.675,0.682,2.478,2.592,1.795,4.264
				C186.786,2333.686,185.562,2334.455,184.271,2334.455L184.271,2334.455z"/>
			<path fill="#F0F0F0" d="M15.728,2265.729c-1.291,0-2.514-0.77-3.031-2.039c-0.683-1.674,0.121-3.582,1.794-4.266l168.546-68.727
				c1.675-0.691,3.585,0.121,4.266,1.795c0.683,1.672-0.12,3.582-1.795,4.266l-168.544,68.727
				C16.558,2265.65,16.14,2265.729,15.728,2265.729L15.728,2265.729z"/>
			<path fill="#F0F0F0" d="M184.271,2265.729c-0.411,0-0.83-0.078-1.234-0.244l-168.546-68.727
				c-1.673-0.684-2.477-2.594-1.794-4.266c0.683-1.676,2.594-2.48,4.267-1.795l168.544,68.727c1.675,0.684,2.478,2.592,1.795,4.266
				C186.786,2264.959,185.562,2265.729,184.271,2265.729L184.271,2265.729z"/>
			<path fill="#F0F0F0" d="M15.728,2195.365c-1.291,0-2.514-0.77-3.031-2.039c-0.683-1.674,0.121-3.582,1.794-4.266l168.546-68.727
				c1.675-0.691,3.585,0.121,4.266,1.795c0.683,1.672-0.12,3.582-1.795,4.264l-168.544,68.729
				C16.558,2195.287,16.14,2195.365,15.728,2195.365L15.728,2195.365z"/>
			<path fill="#F0F0F0" d="M184.271,2195.365c-0.411,0-0.83-0.078-1.234-0.244l-168.546-68.729
				c-1.673-0.682-2.477-2.592-1.794-4.264c0.683-1.676,2.594-2.482,4.267-1.795l168.544,68.727c1.675,0.684,2.478,2.592,1.795,4.266
				C186.786,2194.596,185.562,2195.365,184.271,2195.365L184.271,2195.365z"/>
			<path fill="#F0F0F0" d="M15.728,2126.639c-1.291,0-2.514-0.771-3.031-2.039c-0.683-1.674,0.121-3.584,1.794-4.266l168.546-68.728
				c1.675-0.685,3.585,0.122,4.266,1.794c0.683,1.674-0.12,3.585-1.795,4.267l-168.544,68.726
				C16.558,2126.559,16.14,2126.639,15.728,2126.639L15.728,2126.639z"/>
			<path fill="#F0F0F0" d="M184.271,2126.639c-0.411,0-0.83-0.08-1.234-0.246l-168.546-68.726c-1.673-0.682-2.477-2.593-1.794-4.267
				c0.683-1.675,2.594-2.474,4.267-1.794l168.544,68.728c1.675,0.682,2.478,2.592,1.795,4.266
				C186.786,2125.867,185.562,2126.639,184.271,2126.639L184.271,2126.639z"/>
			<path fill="#F0F0F0" d="M15.728,2057.91c-1.291,0-2.514-0.769-3.031-2.037c-0.683-1.674,0.121-3.585,1.794-4.267l168.546-68.728
				c1.675-0.685,3.585,0.121,4.266,1.795c0.683,1.674-0.12,3.584-1.795,4.267l-168.544,68.727
				C16.558,2057.832,16.14,2057.91,15.728,2057.91L15.728,2057.91z"/>
			<path fill="#F0F0F0" d="M184.271,2057.91c-0.411,0-0.83-0.078-1.234-0.243L14.491,1988.94c-1.673-0.683-2.477-2.593-1.794-4.267
				c0.683-1.675,2.594-2.475,4.267-1.795l168.544,68.728c1.675,0.682,2.478,2.593,1.795,4.267
				C186.786,2057.141,185.562,2057.91,184.271,2057.91L184.271,2057.91z"/>
			<path fill="#F0F0F0" d="M15.728,1989.182c-1.291,0-2.514-0.769-3.031-2.037c-0.683-1.674,0.121-3.584,1.794-4.267l168.546-68.728
				c1.675-0.685,3.585,0.122,4.266,1.795c0.683,1.674-0.12,3.584-1.795,4.267L16.963,1988.94
				C16.558,1989.104,16.14,1989.182,15.728,1989.182L15.728,1989.182z"/>
			<path fill="#F0F0F0" d="M184.271,1989.182c-0.411,0-0.83-0.078-1.234-0.242l-168.546-68.728
				c-1.673-0.683-2.477-2.593-1.794-4.267c0.683-1.675,2.594-2.475,4.267-1.795l168.544,68.728c1.675,0.683,2.478,2.593,1.795,4.267
				C186.786,1988.414,185.562,1989.182,184.271,1989.182L184.271,1989.182z"/>
			<path fill="#F0F0F0" d="M15.728,1918.819c-1.291,0-2.514-0.769-3.031-2.037c-0.683-1.674,0.121-3.585,1.794-4.267l168.546-68.728
				c1.675-0.684,3.585,0.121,4.266,1.795c0.683,1.674-0.12,3.584-1.795,4.267l-168.544,68.727
				C16.558,1918.741,16.14,1918.819,15.728,1918.819L15.728,1918.819z"/>
			<path fill="#F0F0F0" d="M184.271,1918.819c-0.411,0-0.83-0.078-1.234-0.243l-168.546-68.727
				c-1.673-0.683-2.477-2.593-1.794-4.267c0.683-1.674,2.594-2.476,4.267-1.795l168.544,68.728c1.675,0.682,2.478,2.593,1.795,4.267
				C186.786,1918.05,185.562,1918.819,184.271,1918.819L184.271,1918.819z"/>
			<path fill="#F0F0F0" d="M15.728,1850.091c-1.291,0-2.514-0.769-3.031-2.037c-0.683-1.674,0.121-3.584,1.794-4.267l168.546-68.728
				c1.675-0.685,3.585,0.122,4.266,1.795c0.683,1.674-0.12,3.584-1.795,4.267l-168.544,68.728
				C16.558,1850.013,16.14,1850.091,15.728,1850.091L15.728,1850.091z"/>
			<path fill="#F0F0F0" d="M184.271,1850.091c-0.411,0-0.83-0.078-1.234-0.242l-168.546-68.728
				c-1.673-0.683-2.477-2.593-1.794-4.267c0.683-1.674,2.594-2.476,4.267-1.795l168.544,68.728c1.675,0.683,2.478,2.593,1.795,4.267
				C186.786,1849.323,185.562,1850.091,184.271,1850.091L184.271,1850.091z"/>
			<path fill="#F0F0F0" d="M15.728,1781.365c-1.291,0-2.514-0.769-3.031-2.038c-0.683-1.674,0.121-3.584,1.794-4.267l168.546-68.728
				c1.675-0.685,3.585,0.122,4.266,1.795c0.683,1.674-0.12,3.584-1.795,4.267l-168.544,68.728
				C16.558,1781.286,16.14,1781.365,15.728,1781.365L15.728,1781.365z"/>
			<path fill="#F0F0F0" d="M184.271,1781.365c-0.411,0-0.83-0.079-1.234-0.243l-168.546-68.728
				c-1.673-0.683-2.477-2.593-1.794-4.267c0.683-1.674,2.594-2.476,4.267-1.795l168.544,68.728c1.675,0.683,2.478,2.593,1.795,4.267
				C186.786,1780.596,185.562,1781.365,184.271,1781.365L184.271,1781.365z"/>
			<path fill="#F0F0F0" d="M15.728,1712.637c-1.291,0-2.514-0.769-3.031-2.037c-0.683-1.675,0.121-3.585,1.794-4.268l168.546-68.727
				c1.675-0.686,3.585,0.121,4.266,1.794c0.683,1.675-0.12,3.585-1.795,4.267l-168.544,68.728
				C16.558,1712.559,16.14,1712.637,15.728,1712.637L15.728,1712.637z"/>
			<path fill="#F0F0F0" d="M184.271,1712.637c-0.411,0-0.83-0.078-1.234-0.243l-168.546-68.728
				c-1.673-0.682-2.477-2.592-1.794-4.267c0.683-1.675,2.594-2.476,4.267-1.794l168.544,68.727c1.675,0.683,2.478,2.593,1.795,4.268
				C186.786,1711.869,185.562,1712.637,184.271,1712.637L184.271,1712.637z"/>
			<path fill="#F0F0F0" d="M15.728,1642.274c-1.291,0-2.514-0.77-3.031-2.038c-0.683-1.674,0.121-3.584,1.794-4.267l168.546-68.728
				c1.675-0.685,3.585,0.122,4.266,1.795c0.683,1.674-0.12,3.584-1.795,4.267l-168.544,68.728
				C16.558,1642.195,16.14,1642.274,15.728,1642.274L15.728,1642.274z"/>
			<path fill="#F0F0F0" d="M184.271,1642.274c-0.411,0-0.83-0.079-1.234-0.243l-168.546-68.728
				c-1.673-0.683-2.477-2.593-1.794-4.267c0.683-1.675,2.594-2.474,4.267-1.795l168.544,68.728c1.675,0.683,2.478,2.593,1.795,4.267
				C186.786,1641.504,185.562,1642.274,184.271,1642.274L184.271,1642.274z"/>
			<path fill="#F0F0F0" d="M15.728,1573.546c-1.291,0-2.514-0.769-3.031-2.038c-0.683-1.674,0.121-3.584,1.794-4.267l168.546-68.727
				c1.675-0.685,3.585,0.121,4.266,1.794c0.683,1.674-0.12,3.585-1.795,4.267l-168.544,68.728
				C16.558,1573.468,16.14,1573.546,15.728,1573.546L15.728,1573.546z"/>
			<path fill="#F0F0F0" d="M184.271,1573.546c-0.411,0-0.83-0.078-1.234-0.243l-168.546-68.728
				c-1.673-0.682-2.477-2.593-1.794-4.267c0.683-1.675,2.594-2.474,4.267-1.794l168.544,68.727c1.675,0.683,2.478,2.593,1.795,4.267
				C186.786,1572.778,185.562,1573.546,184.271,1573.546L184.271,1573.546z"/>
			<path fill="#F0F0F0" d="M15.728,1504.819c-1.291,0-2.514-0.769-3.031-2.037c-0.683-1.674,0.121-3.585,1.794-4.267l168.546-68.728
				c1.675-0.683,3.585,0.121,4.266,1.795c0.683,1.674-0.12,3.584-1.795,4.267l-168.544,68.727
				C16.558,1504.741,16.14,1504.819,15.728,1504.819L15.728,1504.819z"/>
			<path fill="#F0F0F0" d="M184.271,1504.819c-0.411,0-0.83-0.078-1.234-0.243l-168.546-68.727
				c-1.673-0.683-2.477-2.593-1.794-4.267c0.683-1.675,2.594-2.475,4.267-1.795l168.544,68.728c1.675,0.682,2.478,2.593,1.795,4.267
				C186.786,1504.05,185.562,1504.819,184.271,1504.819L184.271,1504.819z"/>
			<path fill="#F0F0F0" d="M15.728,1436.091c-1.291,0-2.514-0.769-3.031-2.037c-0.683-1.674,0.121-3.584,1.794-4.267l168.546-68.728
				c1.675-0.683,3.585,0.122,4.266,1.795c0.683,1.674-0.12,3.584-1.795,4.267l-168.544,68.728
				C16.558,1436.013,16.14,1436.091,15.728,1436.091L15.728,1436.091z"/>
			<path fill="#F0F0F0" d="M184.271,1436.091c-0.411,0-0.83-0.078-1.234-0.242l-168.546-68.728
				c-1.673-0.683-2.477-2.593-1.794-4.267c0.683-1.675,2.594-2.475,4.267-1.795l168.544,68.728c1.675,0.683,2.478,2.593,1.795,4.267
				C186.786,1435.323,185.562,1436.091,184.271,1436.091L184.271,1436.091z"/>
			<path fill="#F0F0F0" d="M15.728,1365.728c-1.291,0-2.514-0.769-3.031-2.037c-0.683-1.674,0.121-3.585,1.794-4.267l168.546-68.728
				c1.675-0.686,3.585,0.121,4.266,1.794c0.683,1.675-0.12,3.585-1.795,4.268l-168.544,68.727
				C16.558,1365.65,16.14,1365.728,15.728,1365.728L15.728,1365.728z"/>
			<path fill="#F0F0F0" d="M184.271,1365.728c-0.411,0-0.83-0.078-1.234-0.243l-168.546-68.727
				c-1.673-0.683-2.477-2.593-1.794-4.268c0.683-1.674,2.594-2.475,4.267-1.794l168.544,68.728c1.675,0.682,2.478,2.593,1.795,4.267
				C186.786,1364.959,185.562,1365.728,184.271,1365.728L184.271,1365.728z"/>
			<path fill="#F0F0F0" d="M15.728,1297c-1.291,0-2.514-0.769-3.031-2.037c-0.683-1.674,0.121-3.584,1.794-4.267l168.546-68.728
				c1.675-0.682,3.585,0.122,4.266,1.795c0.683,1.674-0.12,3.584-1.795,4.267l-168.544,68.728
				C16.558,1296.922,16.14,1297,15.728,1297L15.728,1297z"/>
			<path fill="#F0F0F0" d="M184.271,1297c-0.411,0-0.83-0.078-1.234-0.242l-168.546-68.728c-1.673-0.683-2.477-2.593-1.794-4.267
				c0.683-1.674,2.594-2.476,4.267-1.795l168.544,68.728c1.675,0.683,2.478,2.593,1.795,4.267
				C186.786,1296.232,185.562,1297,184.271,1297L184.271,1297z"/>
			<path fill="#F0F0F0" d="M15.728,1228.273c-1.291,0-2.514-0.769-3.031-2.038c-0.683-1.674,0.121-3.584,1.794-4.267l168.546-68.727
				c1.675-0.683,3.585,0.122,4.266,1.794c0.683,1.674-0.12,3.584-1.795,4.267l-168.544,68.728
				C16.558,1228.195,16.14,1228.273,15.728,1228.273L15.728,1228.273z"/>
			<path fill="#F0F0F0" d="M184.271,1228.273c-0.411,0-0.83-0.078-1.234-0.243l-168.546-68.728
				c-1.673-0.682-2.477-2.593-1.794-4.267c0.683-1.674,2.594-2.476,4.267-1.794l168.544,68.727c1.675,0.683,2.478,2.593,1.795,4.267
				C186.786,1227.505,185.562,1228.273,184.271,1228.273L184.271,1228.273z"/>
			<path fill="#F0F0F0" d="M15.728,1159.546c-1.291,0-2.514-0.769-3.031-2.038c-0.683-1.674,0.121-3.584,1.794-4.267l168.546-68.727
				c1.675-0.684,3.585,0.122,4.266,1.794c0.683,1.674-0.12,3.584-1.795,4.267l-168.544,68.727
				C16.558,1159.468,16.14,1159.546,15.728,1159.546L15.728,1159.546z"/>
			<path fill="#F0F0F0" d="M184.271,1159.546c-0.411,0-0.83-0.079-1.234-0.243l-168.546-68.727
				c-1.673-0.682-2.477-2.593-1.794-4.267c0.683-1.674,2.594-2.476,4.267-1.794l168.544,68.727c1.675,0.682,2.478,2.593,1.795,4.267
				C186.786,1158.778,185.562,1159.546,184.271,1159.546L184.271,1159.546z"/>
			<path fill="#F0F0F0" d="M15.728,1090.819c-1.291,0-2.514-0.769-3.031-2.037c-0.683-1.674,0.121-3.584,1.794-4.267l168.546-68.728
				c1.675-0.683,3.585,0.122,4.266,1.794c0.683,1.674-0.12,3.584-1.795,4.267l-168.544,68.727
				C16.558,1090.741,16.14,1090.819,15.728,1090.819L15.728,1090.819z"/>
			<path fill="#F0F0F0" d="M184.271,1090.819c-0.411,0-0.83-0.078-1.234-0.243l-168.546-68.727
				c-1.673-0.683-2.477-2.593-1.794-4.267c0.683-1.674,2.594-2.477,4.267-1.794l168.544,68.728c1.675,0.682,2.478,2.593,1.795,4.267
				C186.786,1090.05,185.562,1090.819,184.271,1090.819L184.271,1090.819z"/>
			<path fill="#F0F0F0" d="M15.728,1020.456c-1.291,0-2.514-0.769-3.031-2.038c-0.683-1.674,0.121-3.584,1.794-4.267l168.546-68.728
				c1.675-0.682,3.585,0.123,4.266,1.794c0.683,1.674-0.12,3.584-1.795,4.267l-168.544,68.727
				C16.558,1020.377,16.14,1020.456,15.728,1020.456L15.728,1020.456z"/>
			<path fill="#F0F0F0" d="M184.271,1020.456c-0.411,0-0.83-0.079-1.234-0.243L14.491,951.485c-1.673-0.683-2.477-2.593-1.794-4.267
				c0.683-1.674,2.594-2.474,4.267-1.794l168.544,68.728c1.675,0.682,2.478,2.593,1.795,4.267
				C186.786,1019.687,185.562,1020.456,184.271,1020.456L184.271,1020.456z"/>
			<path fill="#F0F0F0" d="M15.728,951.728c-1.291,0-2.514-0.769-3.031-2.037c-0.683-1.674,0.121-3.584,1.794-4.267l168.546-68.727
				c1.675-0.683,3.585,0.122,4.266,1.794c0.683,1.674-0.12,3.584-1.795,4.267L16.963,951.485
				C16.558,951.65,16.14,951.728,15.728,951.728L15.728,951.728z"/>
			<path fill="#F0F0F0" d="M184.271,951.728c-0.411,0-0.83-0.078-1.234-0.243L14.491,882.758c-1.673-0.682-2.477-2.593-1.794-4.267
				c0.683-1.675,2.594-2.475,4.267-1.794l168.544,68.727c1.675,0.683,2.478,2.593,1.795,4.267
				C186.786,950.959,185.562,951.728,184.271,951.728L184.271,951.728z"/>
			<path fill="#F0F0F0" d="M15.728,883.001c-1.291,0-2.514-0.769-3.031-2.038c-0.683-1.674,0.121-3.584,1.794-4.267l168.546-68.728
				c1.675-0.683,3.585,0.123,4.266,1.795c0.683,1.674-0.12,3.584-1.795,4.267L16.963,882.758
				C16.558,882.922,16.14,883.001,15.728,883.001L15.728,883.001z"/>
			<path fill="#F0F0F0" d="M184.271,883.001c-0.411,0-0.83-0.079-1.234-0.243L14.491,814.031c-1.673-0.683-2.477-2.593-1.794-4.267
				c0.683-1.675,2.594-2.475,4.267-1.795l168.544,68.728c1.675,0.682,2.478,2.593,1.795,4.267
				C186.786,882.232,185.562,883.001,184.271,883.001L184.271,883.001z"/>
			<path fill="#F0F0F0" d="M15.728,814.273c-1.291,0-2.514-0.769-3.031-2.038c-0.683-1.674,0.121-3.584,1.794-4.267l168.546-68.727
				c1.675-0.683,3.585,0.122,4.266,1.794c0.683,1.674-0.12,3.584-1.795,4.267L16.963,814.031
				C16.558,814.195,16.14,814.273,15.728,814.273L15.728,814.273z"/>
			<path fill="#F0F0F0" d="M184.271,814.273c-0.411,0-0.83-0.078-1.234-0.243L14.491,745.303c-1.673-0.682-2.477-2.593-1.794-4.267
				c0.683-1.675,2.594-2.475,4.267-1.794l168.544,68.727c1.675,0.683,2.478,2.593,1.795,4.267
				C186.786,813.505,185.562,814.273,184.271,814.273L184.271,814.273z"/>
			<path fill="#F0F0F0" d="M15.728,743.91c-1.291,0-2.514-0.769-3.031-2.037c-0.683-1.674,0.121-3.584,1.794-4.267l168.546-68.728
				c1.675-0.683,3.585,0.122,4.266,1.795c0.683,1.674-0.12,3.584-1.795,4.267L16.963,743.667
				C16.558,743.832,16.14,743.91,15.728,743.91L15.728,743.91z"/>
			<path fill="#F0F0F0" d="M184.271,743.91c-0.411,0-0.83-0.078-1.234-0.243L14.491,674.94c-1.673-0.683-2.477-2.593-1.794-4.267
				c0.683-1.674,2.594-2.476,4.267-1.795l168.544,68.728c1.675,0.682,2.478,2.593,1.795,4.267
				C186.786,743.141,185.562,743.91,184.271,743.91L184.271,743.91z"/>
			<path fill="#F0F0F0" d="M15.728,675.183c-1.291,0-2.514-0.769-3.031-2.038c-0.683-1.674,0.121-3.584,1.794-4.267l168.546-68.727
				c1.675-0.683,3.585,0.122,4.266,1.794c0.683,1.674-0.12,3.584-1.795,4.267L16.963,674.94
				C16.558,675.104,16.14,675.183,15.728,675.183L15.728,675.183z"/>
			<path fill="#F0F0F0" d="M184.271,675.183c-0.411,0-0.83-0.078-1.234-0.243L14.491,606.212c-1.673-0.682-2.477-2.593-1.794-4.267
				c0.683-1.674,2.594-2.476,4.267-1.794l168.544,68.727c1.675,0.683,2.478,2.593,1.795,4.267
				C186.786,674.414,185.562,675.183,184.271,675.183L184.271,675.183z"/>
			<path fill="#F0F0F0" d="M15.728,606.456c-1.291,0-2.514-0.769-3.031-2.038c-0.683-1.674,0.121-3.584,1.794-4.267l168.546-68.728
				c1.675-0.684,3.585,0.122,4.266,1.794c0.683,1.674-0.12,3.584-1.795,4.267L16.963,606.212
				C16.558,606.377,16.14,606.456,15.728,606.456L15.728,606.456z"/>
			<path fill="#F0F0F0" d="M184.271,606.456c-0.411,0-0.83-0.079-1.234-0.243L14.491,537.485c-1.673-0.683-2.477-2.593-1.794-4.267
				c0.683-1.674,2.594-2.476,4.267-1.794l168.544,68.728c1.675,0.682,2.478,2.593,1.795,4.267
				C186.786,605.687,185.562,606.456,184.271,606.456L184.271,606.456z"/>
			<path fill="#F0F0F0" d="M15.728,537.728c-1.291,0-2.514-0.769-3.031-2.037c-0.683-1.674,0.121-3.584,1.794-4.267l168.546-68.727
				c1.675-0.684,3.585,0.122,4.266,1.794c0.683,1.674-0.12,3.584-1.795,4.267L16.963,537.485
				C16.558,537.65,16.14,537.728,15.728,537.728L15.728,537.728z"/>
			<path fill="#F0F0F0" d="M184.271,537.728c-0.411,0-0.83-0.078-1.234-0.243L14.491,468.758c-1.673-0.682-2.477-2.593-1.794-4.267
				c0.683-1.675,2.594-2.477,4.267-1.794l168.544,68.727c1.675,0.683,2.478,2.593,1.795,4.267
				C186.786,536.959,185.562,537.728,184.271,537.728L184.271,537.728z"/>
			<path fill="#F0F0F0" d="M15.728,467.365c-1.291,0-2.514-0.769-3.031-2.038c-0.683-1.674,0.121-3.584,1.794-4.267l168.546-68.727
				c1.675-0.683,3.585,0.122,4.266,1.794c0.683,1.674-0.12,3.584-1.795,4.267L16.963,467.122
				C16.558,467.286,16.14,467.365,15.728,467.365L15.728,467.365z"/>
			<path fill="#F0F0F0" d="M184.271,467.365c-0.411,0-0.83-0.079-1.234-0.243L14.491,398.394c-1.673-0.682-2.477-2.593-1.794-4.267
				c0.683-1.675,2.594-2.474,4.267-1.794l168.544,68.727c1.675,0.683,2.478,2.593,1.795,4.267
				C186.786,466.596,185.562,467.365,184.271,467.365L184.271,467.365z"/>
			<path fill="#F0F0F0" d="M15.728,398.637c-1.291,0-2.514-0.769-3.031-2.038c-0.683-1.674,0.121-3.584,1.794-4.267l168.546-68.727
				c1.675-0.684,3.585,0.122,4.266,1.794c0.683,1.674-0.12,3.584-1.795,4.267L16.963,398.394
				C16.558,398.559,16.14,398.637,15.728,398.637L15.728,398.637z"/>
			<path fill="#F0F0F0" d="M184.271,398.637c-0.411,0-0.83-0.078-1.234-0.243L14.491,329.667c-1.673-0.682-2.477-2.593-1.794-4.267
				c0.683-1.675,2.594-2.475,4.267-1.794l168.544,68.727c1.675,0.682,2.478,2.593,1.795,4.267
				C186.786,397.869,185.562,398.637,184.271,398.637L184.271,398.637z"/>
			<path fill="#F0F0F0" d="M15.728,329.91c-1.291,0-2.514-0.769-3.031-2.037c-0.683-1.674,0.121-3.584,1.794-4.267l168.546-68.728
				c1.675-0.684,3.585,0.122,4.266,1.795c0.683,1.674-0.12,3.584-1.795,4.267L16.963,329.667
				C16.558,329.832,16.14,329.91,15.728,329.91L15.728,329.91z"/>
			<path fill="#F0F0F0" d="M184.271,329.91c-0.411,0-0.83-0.078-1.234-0.243L14.491,260.94c-1.673-0.683-2.477-2.593-1.794-4.267
				c0.683-1.675,2.594-2.475,4.267-1.795l168.544,68.728c1.675,0.682,2.478,2.593,1.795,4.267
				C186.786,329.141,185.562,329.91,184.271,329.91L184.271,329.91z"/>
			<path fill="#F0F0F0" d="M15.728,261.183c-1.291,0-2.514-0.769-3.031-2.038c-0.683-1.674,0.121-3.584,1.794-4.267l168.546-68.727
				c1.675-0.685,3.585,0.122,4.266,1.794c0.683,1.674-0.12,3.584-1.795,4.267L16.963,260.94
				C16.558,261.104,16.14,261.183,15.728,261.183L15.728,261.183z"/>
			<path fill="#F0F0F0" d="M184.271,261.183c-0.411,0-0.83-0.078-1.234-0.243L14.491,192.212c-1.673-0.682-2.477-2.593-1.794-4.267
				c0.683-1.675,2.594-2.475,4.267-1.794l168.544,68.727c1.675,0.683,2.478,2.593,1.795,4.267
				C186.786,260.414,185.562,261.183,184.271,261.183L184.271,261.183z"/>
			<path fill="#F0F0F0" d="M15.728,190.819c-1.291,0-2.514-0.769-3.031-2.037c-0.683-1.674,0.121-3.584,1.794-4.267l168.546-68.728
				c1.675-0.684,3.585,0.122,4.266,1.795c0.683,1.674-0.12,3.584-1.795,4.267L16.963,190.576
				C16.558,190.741,16.14,190.819,15.728,190.819L15.728,190.819z"/>
			<path fill="#F0F0F0" d="M184.271,190.819c-0.411,0-0.83-0.078-1.234-0.243L14.491,121.849c-1.673-0.683-2.477-2.593-1.794-4.267
				c0.683-1.674,2.594-2.476,4.267-1.795l168.544,68.728c1.675,0.682,2.478,2.593,1.795,4.267
				C186.786,190.05,185.562,190.819,184.271,190.819L184.271,190.819z"/>
			<path fill="#F0F0F0" d="M15.728,122.092c-1.291,0-2.514-0.769-3.031-2.038c-0.683-1.674,0.121-3.584,1.794-4.267L183.037,47.06
				c1.675-0.684,3.585,0.122,4.266,1.795c0.683,1.674-0.12,3.584-1.795,4.267L16.963,121.849
				C16.558,122.013,16.14,122.092,15.728,122.092L15.728,122.092z"/>
			<path fill="#F0F0F0" d="M184.271,122.092c-0.411,0-0.83-0.079-1.234-0.243L14.491,53.122c-1.673-0.683-2.477-2.593-1.794-4.267
				c0.683-1.674,2.594-2.476,4.267-1.795l168.544,68.728c1.675,0.683,2.478,2.593,1.795,4.267
				C186.786,121.323,185.562,122.092,184.271,122.092L184.271,122.092z"/>
			<path fill="#F0F0F0" d="M197.363,55H2.636C1.733,55,1,54.267,1,53.364V1c0-0.904,0.733-1.636,1.636-1.636h194.727
				C198.269-0.636,199,0.096,199,1v52.364C199,54.267,198.269,55,197.363,55L197.363,55z M4.273,51.727h191.455V2.636H4.273V51.727
				L4.273,51.727z"/>
			<polygon fill="#F0F0F0" points="197.363,50.909 4.273,50.909 4.273,46 197.363,46 197.363,50.909 			"/>
			<path fill="#F0F0F0" d="M99.182,48.455c-0.903,0-1.636-0.732-1.636-1.636V4.273c0-0.904,0.732-1.637,1.636-1.637
				c0.904,0,1.637,0.733,1.637,1.637v42.545C100.818,47.722,100.086,48.455,99.182,48.455L99.182,48.455z"/>
			<path fill="#F0F0F0" d="M46.818,45.182c-0.904,0-1.637-0.733-1.637-1.637V1c0-0.904,0.733-1.636,1.637-1.636
				c0.903,0,1.636,0.732,1.636,1.636v42.545C48.455,44.449,47.722,45.182,46.818,45.182L46.818,45.182z"/>
			<path fill="#F0F0F0" d="M151.546,45.182c-0.905,0-1.637-0.733-1.637-1.637V1c0-0.904,0.731-1.636,1.637-1.636
				c0.904,0,1.636,0.732,1.636,1.636v42.545C153.182,44.449,152.45,45.182,151.546,45.182L151.546,45.182z"/>
			<path fill="#F0F0F0" d="M197.363,27.182H4.273c-0.904,0-1.637-0.733-1.637-1.637c0-0.903,0.733-1.636,1.637-1.636h193.09
				c0.905,0,1.637,0.733,1.637,1.636C199,26.449,198.269,27.182,197.363,27.182L197.363,27.182z"/>
			<path id="Fill-248" fill="#F0F0F0" d="M16.91,4146.197c9.769,0,17.688,8.002,17.688,17.877c0,3.559-1.039,6.863-2.811,9.652
				h136.918c-1.771-2.789-2.812-6.094-2.812-9.652c0-9.875,7.921-17.877,17.687-17.877c5.575,0,10.542,2.617,13.784,6.688v-31.521
				H2.636v32.186C5.854,4149.098,11.042,4146.197,16.91,4146.197"/>
		</g>
	</g>
</g>
</svg>
