<?xml version="1.0" encoding="UTF-8"?>
<svg width="48px" height="36px" viewBox="0 0 48 36" version="1.1" xmlns="http://www.w3.org/2000/svg" xmlns:xlink="http://www.w3.org/1999/xlink">
    <!-- Generator: Sketch 55.2 (78181) - https://sketchapp.com -->
    <title>Group 36</title>
    <desc>Created with Sketch.</desc>
    <g id="Persönlicher-Bereich_closed" stroke="none" stroke-width="1" fill="none" fill-rule="evenodd">
        <g id="11:-Mietprozess-8-Zahlung-DP" transform="translate(-1025.000000, -543.000000)">
            <g id="Group-2-Copy" transform="translate(1025.000000, 543.000000)">
                <g id="Group-36">
                    <g id="Group-3" transform="translate(0.000000, 0.109250)" fill="#757575">
                        <path d="M23.57595,22.145 C27.48545,25.79525 33.2557,25.384 36.6732,21.83725 C40.03095,18.3525 40.1732,12.94975 37.02745,9.286 C35.40595,7.3975 33.3347,6.30775 30.8532,6.076 C28.0627,5.81525 25.64295,6.70125 23.5652,8.58225 C22.64045,7.71375 21.5857,7.05175 20.39845,6.60675 C19.2092,6.16075 17.97695,5.9765 16.70995,6.04 C15.44345,6.1035 14.23895,6.41375 13.0977,6.97125 C11.95545,7.52925 10.96695,8.28725 10.1347,9.245 C6.9352,12.9275 7.17245,18.256 10.32295,21.695 C13.6287,25.30325 19.57095,25.90875 23.57595,22.145 Z M4.0052,35.49675 C2.4667,35.49525 1.29395,34.817 0.50695,33.4955 C0.14695,32.8915 -5.00000002e-05,32.22325 -5.00000002e-05,31.52175 C0.00045,29.63425 -5.00000002e-05,27.7465 -5.00000002e-05,25.85875 C-5.00000002e-05,18.57525 -5.00000002e-05,11.29175 -5.00000002e-05,4.00825 C-5.00000002e-05,2.5145 0.9562,1.07525 2.3287,0.482 C2.86545,0.25 3.42245,0.1408125 4.00395,0.1408125 C17.04995,0.1408125 30.09595,0.1408125 43.1422,0.1408125 C45.06895,0.1408125 46.6397,1.38575 47.0487,3.24925 C47.1132,3.543 47.14295,3.85025 47.14295,4.15125 C47.14795,13.2725 47.1471023,22.394 47.14645,31.51525 C47.14645,33.255 46.07295,34.76025 44.4517,35.29725 C44.0192,35.44025 43.57245,35.5000674 43.1162,35.5000674 C36.5977,35.49875 10.5237,35.5025 4.0052,35.49675 Z" id="Combined-Shape"></path>
                    </g>
                    <path d="M23.57795,22.224525 C27.7912,18.249775 27.1812,11.904525 23.5622,8.726525 C19.5042,12.552025 19.8127,18.786525 23.57795,22.224525 M23.57595,22.254275 C19.57095,26.018025 13.6287,25.412525 10.32295,21.804025 C7.17245,18.365275 6.9352,13.036775 10.1347,9.354275 C10.96695,8.396525 11.95545,7.638525 13.0977,7.080525 C14.23895,6.523025 15.44345,6.212775 16.70995,6.149275 C17.97695,6.085775 19.2092,6.270025 20.39845,6.716025 C21.5857,7.161025 22.64045,7.823025 23.5652,8.691525 C25.64295,6.810525 28.0627,5.924525 30.8532,6.185025 C33.3347,6.417025 35.40595,7.506775 37.02745,9.395275 C40.1732,13.059025 40.03095,18.461775 36.6732,21.946525 C33.2557,25.493275 27.48545,25.904525 23.57595,22.254275" id="Fill-4" fill="#FFFFFF"></path>
                    <path d="M23.57795,22.224525 C19.8127,18.786525 19.5042,12.552025 23.5622,8.726525 C27.1812,11.904525 27.7912,18.249775 23.57795,22.224525" id="Fill-14" fill="#757575"></path>
                    <path d="M9.9892,29.548125 L9.9892,30.534625 C9.8197,30.327875 9.66795,30.186125 9.53395,30.109125 C9.40195,30.029875 9.2467,29.990375 9.0687,29.990375 C8.7892,29.990375 8.5572,30.088125 8.37245,30.283875 C8.1877,30.479625 8.0952,30.724875 8.0952,31.019625 C8.0952,31.321125 8.1842,31.568625 8.36245,31.762125 C8.54295,31.955625 8.7727,32.052625 9.0522,32.052625 C9.2302,32.052625 9.38745,32.014125 9.52395,31.937125 C9.65595,31.862125 9.81095,31.717125 9.9892,31.501375 L9.9892,32.481375 C9.68795,32.637625 9.38645,32.715625 9.0852,32.715625 C8.58795,32.715625 8.1722,32.555125 7.83795,32.233875 C7.50345,31.910625 7.3362,31.509125 7.3362,31.029625 C7.3362,30.550125 7.5057,30.145375 7.84445,29.815375 C8.1832,29.485375 8.59895,29.320375 9.0917,29.320375 C9.40845,29.320375 9.7077,29.396375 9.9892,29.548125" id="Fill-26" fill="#FFFFFF"></path>
                    <path d="M10.708525,29.40955 L11.451025,29.40955 L11.451025,29.69655 C11.587275,29.55355 11.708275,29.4558 11.813775,29.40305 C11.921775,29.34805 12.049275,29.32055 12.196525,29.32055 C12.392525,29.32055 12.597025,29.3843 12.810275,29.5118 L12.470525,30.19155 C12.329775,30.0903 12.192275,30.0398 12.058025,30.0398 C11.653275,30.0398 11.451025,30.34555 11.451025,30.95705 L11.451025,32.6233 L10.708525,32.6233 L10.708525,29.40955 Z" id="Fill-27" fill="#FFFFFF"></path>
                    <path d="M15.35435,30.5842 C15.25085,30.1882 15.00135,29.9902 14.60535,29.9902 C14.5151,29.9902 14.43035,30.00395 14.35135,30.03145 C14.2721,30.05895 14.2001,30.0987 14.1351,30.1502 C14.07035,30.20195 14.0146,30.2642 13.9686,30.3367 C13.92235,30.4092 13.8871,30.4917 13.86285,30.5842 L15.35435,30.5842 Z M16.1166,31.1912 L13.81335,31.1912 C13.83335,31.4552 13.9191,31.66545 14.07085,31.82145 C14.2226,31.97545 14.41735,32.05245 14.65485,32.05245 C14.8396,32.05245 14.9926,32.00845 15.1136,31.92045 C15.23235,31.83245 15.3676,31.6697 15.51935,31.4322 L16.14635,31.78195 C16.04935,31.94695 15.9471,32.0882 15.83935,32.20595 C15.7316,32.3237 15.6161,32.42045 15.49285,32.4962 C15.36985,32.5722 15.2366,32.6277 15.0936,32.66295 C14.9506,32.6982 14.7956,32.7157 14.62835,32.7157 C14.14885,32.7157 13.76385,32.5617 13.4736,32.2537 C13.1831,31.9437 13.0381,31.5322 13.0381,31.0197 C13.0381,30.5117 13.17885,30.1002 13.46035,29.7857 C13.7441,29.47545 14.12035,29.32045 14.58885,29.32045 C15.06185,29.32045 15.43585,29.4712 15.7106,29.77245 C15.98335,30.0717 16.11985,30.4862 16.11985,31.01645 L16.1166,31.1912 Z" id="Fill-28" fill="#FFFFFF"></path>
                    <path d="M17.535375,31.00655 C17.535375,31.31455 17.617875,31.5653 17.782875,31.7588 C17.952125,31.95455 18.165625,32.05255 18.422875,32.05255 C18.697875,32.05255 18.920125,31.95805 19.089375,31.7688 C19.258875,31.57305 19.343625,31.3243 19.343625,31.02305 C19.343625,30.7218 19.258875,30.47305 19.089375,30.2773 C18.920125,30.08605 18.700125,29.9903 18.429625,29.9903 C18.174375,29.9903 17.961125,30.08705 17.789375,30.28055 C17.620125,30.4763 17.535375,30.7183 17.535375,31.00655 L17.535375,31.00655 Z M19.297375,27.0503 L20.043125,27.0503 L20.043125,32.6233 L19.297375,32.6233 L19.297375,32.2868 C19.004875,32.5728 18.673625,32.7158 18.304125,32.7158 C17.864125,32.7158 17.499125,32.55505 17.208625,32.23405 C16.920625,31.9063 16.776375,31.49705 16.776375,31.00655 C16.776375,30.52705 16.920625,30.12655 17.208625,29.80555 C17.494625,29.48205 17.854375,29.32055 18.287625,29.32055 C18.663875,29.32055 19.000375,29.47455 19.297375,29.7823 L19.297375,27.0503 Z" id="Fill-29" fill="#FFFFFF"></path>
                    <path d="M20.98,32.62325 L21.7225,32.62325 L21.7225,29.4095 L20.98,29.4095 L20.98,32.62325 Z M20.868,28.07325 C20.868,27.9435 20.91525,27.83125 21.00975,27.73675 C21.1045,27.642 21.21775,27.59475 21.34975,27.59475 C21.484,27.59475 21.59825,27.642 21.69275,27.73675 C21.7875,27.829 21.83475,27.94225 21.83475,28.0765 C21.83475,28.21075 21.7875,28.325 21.69275,28.41975 C21.6005,28.51425 21.48725,28.5615 21.353,28.5615 C21.21875,28.5615 21.1045,28.51425 21.00975,28.41975 C20.91525,28.325 20.868,28.2095 20.868,28.07325 L20.868,28.07325 Z" id="Fill-30" fill="#FFFFFF"></path>
                    <polygon id="Fill-31" fill="#FFFFFF" points="23.428475 30.10245 23.428475 32.62345 22.685975 32.62345 22.685975 30.10245 22.369225 30.10245 22.369225 29.40945 22.685975 29.40945 22.685975 28.2317 23.428475 28.2317 23.428475 29.40945 24.005975 29.40945 24.005975 30.10245"></polygon>
                    <path d="M29.097175,29.548125 L29.097175,30.534625 C28.927675,30.327875 28.775925,30.186125 28.641925,30.109125 C28.509925,30.029875 28.354675,29.990375 28.176675,29.990375 C27.897175,29.990375 27.665175,30.088125 27.480425,30.283875 C27.295675,30.479625 27.203175,30.724875 27.203175,31.019625 C27.203175,31.321125 27.292175,31.568625 27.470425,31.762125 C27.650925,31.955625 27.880675,32.052625 28.160175,32.052625 C28.338175,32.052625 28.495675,32.014125 28.631925,31.937125 C28.763925,31.862125 28.918925,31.717125 29.097175,31.501375 L29.097175,32.481375 C28.795925,32.637625 28.494425,32.715625 28.193175,32.715625 C27.695925,32.715625 27.280175,32.555125 26.945925,32.233875 C26.611425,31.910625 26.444425,31.509125 26.444425,31.029625 C26.444425,30.550125 26.613675,30.145375 26.952425,29.815375 C27.291175,29.485375 27.706925,29.320375 28.199675,29.320375 C28.516425,29.320375 28.815675,29.396375 29.097175,29.548125" id="Fill-32" fill="#FFFFFF"></path>
                    <path d="M30.4236,31.00655 C30.4236,31.31455 30.5061,31.5653 30.6711,31.7588 C30.84035,31.95455 31.05385,32.05255 31.3111,32.05255 C31.5861,32.05255 31.80835,31.95805 31.9776,31.7688 C32.1471,31.57305 32.23185,31.3243 32.23185,31.02305 C32.23185,30.7218 32.1471,30.47305 31.9776,30.2773 C31.80835,30.08605 31.58835,29.9903 31.31785,29.9903 C31.0626,29.9903 30.84935,30.08705 30.6776,30.28055 C30.50835,30.4763 30.4236,30.7183 30.4236,31.00655 L30.4236,31.00655 Z M32.1856,29.40955 L32.93135,29.40955 L32.93135,32.6233 L32.1856,32.6233 L32.1856,32.2868 C31.87985,32.5728 31.55085,32.7158 31.1991,32.7158 C30.7546,32.7158 30.38735,32.55505 30.09685,32.23405 C29.80885,31.9063 29.6646,31.49705 29.6646,31.00655 C29.6646,30.5248 29.80885,30.1233 30.09685,29.8023 C30.3851,29.48105 30.74585,29.32055 31.1791,29.32055 C31.5531,29.32055 31.8886,29.47455 32.1856,29.7823 L32.1856,29.40955 Z" id="Fill-33" fill="#FFFFFF"></path>
                    <path d="M33.868375,29.40955 L34.610875,29.40955 L34.610875,29.69655 C34.747125,29.55355 34.868125,29.4558 34.973625,29.40305 C35.081625,29.34805 35.209125,29.32055 35.356375,29.32055 C35.552375,29.32055 35.756875,29.3843 35.970125,29.5118 L35.630375,30.19155 C35.489625,30.0903 35.352125,30.0398 35.217875,30.0398 C34.813125,30.0398 34.610875,30.34555 34.610875,30.95705 L34.610875,32.6233 L33.868375,32.6233 L33.868375,29.40955 Z" id="Fill-34" fill="#FFFFFF"></path>
                    <path d="M36.9568,31.00655 C36.9568,31.31455 37.0393,31.5653 37.2043,31.7588 C37.37355,31.95455 37.58705,32.05255 37.8443,32.05255 C38.1193,32.05255 38.34155,31.95805 38.5108,31.7688 C38.6803,31.57305 38.76505,31.3243 38.76505,31.02305 C38.76505,30.7218 38.6803,30.47305 38.5108,30.2773 C38.34155,30.08605 38.12155,29.9903 37.85105,29.9903 C37.5958,29.9903 37.38255,30.08705 37.2108,30.28055 C37.04155,30.4763 36.9568,30.7183 36.9568,31.00655 L36.9568,31.00655 Z M38.7188,27.0503 L39.46455,27.0503 L39.46455,32.6233 L38.7188,32.6233 L38.7188,32.2868 C38.4263,32.5728 38.09505,32.7158 37.72555,32.7158 C37.28555,32.7158 36.92055,32.55505 36.63005,32.23405 C36.34205,31.9063 36.1978,31.49705 36.1978,31.00655 C36.1978,30.52705 36.34205,30.12655 36.63005,29.80555 C36.91605,29.48205 37.2758,29.32055 37.70905,29.32055 C38.0853,29.32055 38.4218,29.47455 38.7188,29.7823 L38.7188,27.0503 Z" id="Fill-35" fill="#FFFFFF"></path>
                </g>
            </g>
        </g>
    </g>
</svg>