<?xml version="1.0" encoding="UTF-8"?>
<svg width="48px" height="37px" viewBox="0 0 48 37" version="1.1" xmlns="http://www.w3.org/2000/svg" xmlns:xlink="http://www.w3.org/1999/xlink">
    <!-- Generator: Sketch 55.2 (78181) - https://sketchapp.com -->
    <title>Group 24</title>
    <desc>Created with Sketch.</desc>
    <defs>
        <polygon id="path-1" points="0 0.033 47.19775 0.033 47.19775 36.75 0 36.75"></polygon>
    </defs>
    <g id="Persönlicher-Bereich_closed" stroke="none" stroke-width="1" fill="none" fill-rule="evenodd">
        <g id="11:-Mietprozess-8-Zahlung-DP" transform="translate(-1025.000000, -416.000000)">
            <g id="Group-4-Copy" transform="translate(1025.000000, 416.000000)">
                <g id="Group-24">
                    <g id="Group-3" transform="translate(0.000000, 0.217000)">
                        <mask id="mask-2" fill="white">
                            <use xlink:href="#path-1"></use>
                        </mask>
                        <g id="Clip-2"></g>
                        <path d="M43.5558,12.7727 C43.32005,12.7727 43.08405,12.7707 42.8483,12.7732 C42.6513,12.77545 42.5608,12.8517 42.5313,13.0387 C42.42005,13.7432 42.3093,14.44745 42.1998,15.15195 C41.87405,17.2472 41.54955,19.3427 41.2233,21.43795 C41.1773,21.73445 41.2573,21.83845 41.5573,21.8412 C41.92955,21.84445 42.30205,21.84245 42.67455,21.84195 C43.02955,21.84145 43.18805,21.71545 43.2453,21.3672 C43.40005,20.42495 43.5493,19.48195 43.7008,18.5392 C43.99005,16.73945 44.2798,14.93995 44.5678,13.1402 C44.60355,12.9177 44.4868,12.7777 44.2633,12.7737 C44.02755,12.7697 43.79155,12.7727 43.5558,12.7727 M21.61905,19.19595 C21.5888,19.09745 21.5703,19.03995 21.5533,18.98195 C21.2843,18.0667 21.01605,17.15095 20.74605,16.23595 C20.65205,15.9172 20.4943,15.79895 20.1653,15.7977 C19.76805,15.79595 19.37005,15.8127 18.9738,15.79295 C18.5913,15.7737 18.3808,15.88595 18.5558,16.3807 C19.1058,17.93395 19.62855,19.4967 20.1553,21.0582 C20.1778,21.1247 20.16005,21.22645 20.1223,21.2877 C20.0083,21.47195 19.87055,21.64145 19.75005,21.82195 C19.37155,22.38895 18.9858,22.95195 18.62405,23.52995 C18.4278,23.84395 18.5453,24.0227 18.91155,24.02295 C19.34605,24.02295 19.7808,24.01445 20.2148,24.0262 C20.47105,24.03295 20.64705,23.9367 20.79105,23.7267 C22.4868,21.2567 24.1863,18.78945 25.8868,16.32245 C25.96405,16.2102 26.0293,16.10495 25.9588,15.96495 C25.8858,15.82045 25.76005,15.79545 25.61505,15.79645 C25.1618,15.79895 24.7088,15.8017 24.2558,15.79545 C24.0298,15.7922 23.87105,15.8797 23.7443,16.06845 C23.1773,16.9132 22.60305,17.7527 22.03105,18.59395 C21.90255,18.78295 21.7728,18.9712 21.61905,19.19595 M15.5003,16.42245 C15.04705,15.95995 14.93255,15.86795 14.5863,15.7722 C13.7878,15.5512 12.99505,15.58445 12.2383,15.9217 C10.6833,16.6147 9.8173,18.2327 10.0833,19.92495 C10.19655,20.64645 10.5348,21.2467 11.1838,21.61095 C12.2438,22.2057 13.2818,22.0632 14.2808,21.4387 C14.4513,21.3322 14.6018,21.19395 14.7778,21.0577 C14.76205,21.1552 14.7458,21.23345 14.73755,21.3127 C14.7293,21.3927 14.72205,21.47395 14.7268,21.55395 C14.7398,21.76445 14.82055,21.84045 15.0318,21.84145 C15.4228,21.84345 15.8138,21.84195 16.20505,21.84195 C16.6183,21.84195 16.79605,21.6847 16.8578,21.27145 C16.9213,20.8482 16.98805,20.4257 17.0553,20.0032 C17.25905,18.7232 17.46455,17.44345 17.66805,16.1637 C17.7058,15.9267 17.5938,15.7932 17.35255,15.7917 C16.87455,15.7887 16.3963,15.79495 15.91855,15.7887 C15.7213,15.7862 15.6188,15.8897 15.5698,16.0602 C15.5378,16.17095 15.52555,16.28745 15.5003,16.42245 M38.03705,21.08895 C38.02155,21.20945 37.99105,21.35595 37.9863,21.50345 C37.97855,21.7532 38.07005,21.8412 38.3158,21.8417 C38.7128,21.84295 39.11005,21.84245 39.5073,21.84195 C39.8798,21.84145 40.05255,21.7012 40.11305,21.33095 C40.26305,20.4132 40.4078,19.49495 40.55405,18.5767 C40.67805,17.7992 40.80355,17.0222 40.9243,16.2442 C40.97855,15.8942 40.8903,15.79095 40.5533,15.7907 C40.1063,15.79045 39.65955,15.7897 39.2128,15.79095 C38.98605,15.7917 38.90155,15.8527 38.83755,16.07195 C38.8058,16.18145 38.7888,16.2952 38.76305,16.4157 C38.2518,15.9142 38.17555,15.84595 37.80505,15.7562 C36.78605,15.5097 35.8083,15.6187 34.9428,16.23045 C33.6898,17.11645 33.1353,18.34645 33.34005,19.8737 C33.47655,20.8937 34.0523,21.59145 35.06005,21.8757 C35.82155,22.09045 36.56355,21.9922 37.25605,21.6117 C37.5348,21.45845 37.78755,21.25795 38.03705,21.08895 M29.48755,12.8077 C29.4873,12.79595 29.4873,12.78445 29.4873,12.7727 C28.92255,12.7727 28.3578,12.7722 27.79305,12.77295 C27.4223,12.7732 27.27605,12.9012 27.22155,13.2652 C27.16905,13.6147 27.11505,13.96395 27.05955,14.31295 C26.6808,16.6882 26.3013,19.06345 25.9228,21.4387 C25.8793,21.71195 25.9863,21.8397 26.26355,21.8412 C26.77255,21.84395 27.28155,21.8432 27.79055,21.84145 C28.03705,21.8407 28.1508,21.7422 28.19005,21.4957 C28.29855,20.8162 28.4288,20.13895 28.5048,19.4557 C28.5673,18.8937 28.7818,18.80445 29.3303,18.7882 C29.37355,18.78695 29.41705,18.79645 29.4603,18.79545 C29.90005,18.7872 30.3448,18.81695 30.77855,18.76095 C31.72505,18.63895 32.53455,18.2357 33.1018,17.4392 C33.6843,16.62145 33.84805,15.69195 33.7533,14.7137 C33.68455,14.0062 33.33505,13.4687 32.6898,13.1362 C32.32505,12.94845 31.93655,12.82945 31.5338,12.8147 C30.85255,12.78945 30.16955,12.8077 29.48755,12.8077 M6.2033,12.80645 C6.2033,12.7952 6.2033,12.78395 6.2033,12.7727 C5.61955,12.7727 5.03605,12.77095 4.4523,12.77345 C4.15805,12.7747 4.0108,12.90945 3.96555,13.2017 C3.9333,13.40995 3.89555,13.61745 3.86205,13.8257 C3.45455,16.36095 3.04755,18.8962 2.63955,21.43145 C2.5913,21.7312 2.6903,21.8537 2.99255,21.8547 C3.43355,21.85645 3.8743,21.8557 4.3153,21.8552 C4.65805,21.8547 4.84105,21.6977 4.89855,21.35845 C5.0078,20.71645 5.1403,20.07745 5.22005,19.43195 C5.2933,18.84045 5.5638,18.82395 5.95705,18.78895 C6.02455,18.78295 6.09355,18.79545 6.1618,18.79445 C6.60805,18.7867 7.0598,18.8202 7.49905,18.7607 C8.63205,18.60745 9.5413,18.0802 10.0808,17.03345 C10.4638,16.2902 10.58005,15.48995 10.47905,14.66445 C10.3923,13.9557 10.03555,13.40745 9.3718,13.1222 C9.0183,12.9702 8.6303,12.84695 8.2503,12.81995 C7.57105,12.7717 6.88605,12.80645 6.2033,12.80645 M43.14805,0.03645 C44.7663,0.0377 45.9808,0.75595 46.75755,2.1807 C47.08855,2.78745 47.1973,3.45195 47.19705,4.13895 C47.1958,13.1857 47.1963,22.23245 47.1963,31.2792 C47.1963,31.79445 47.20055,32.30995 47.19505,32.8252 C47.1743,34.70845 45.9073,36.2687 44.06755,36.6637 C43.7968,36.72195 43.5138,36.74645 43.23655,36.74645 C32.68705,36.7507 22.1378,36.750001 11.5883,36.750001 C9.05505,36.750001 6.52155,36.750001 3.9883,36.750001 C1.93355,36.750001 0.29155,35.3192 0.03355,33.2822 C-0.0162,32.89045 0.00405,32.4887 0.00405,32.0917 C0.00305,22.75295 0.0033,13.41445 0.0043,4.07595 C0.00455,2.3662 0.79255,1.1447 2.3143,0.39095 C2.8698,0.11595 3.47105,0.03345 4.0863,0.03345 C10.49405,0.0342 36.6348,0.03045 43.14805,0.03645" id="Fill-1" fill="#757575" mask="url(#mask-2)"></path>
                    </g>
                    <path d="M5.594875,17.2527 C6.134125,17.2052 6.642625,17.18795 7.140875,17.10745 C7.513625,17.04745 7.801625,16.8117 7.917375,16.4357 C7.991375,16.19595 8.045875,15.9422 8.055875,15.69245 C8.074375,15.2457 7.839875,14.95395 7.395625,14.8902 C7.005375,14.83445 6.606875,14.82995 6.211375,14.8172 C6.055125,14.81195 5.966125,14.9137 5.943375,15.0717 C5.914125,15.27395 5.879375,15.47545 5.846875,15.67745 C5.765875,16.1842 5.684625,16.6912 5.594875,17.2527 M6.203375,13.02345 C6.885875,13.02345 7.571125,12.9887 8.250125,13.03695 C8.630375,13.06395 9.018375,13.1872 9.371875,13.3392 C10.035625,13.62445 10.392375,14.1727 10.479125,14.88145 C10.579875,15.70695 10.463625,16.5072 10.080625,17.25045 C9.541375,18.2972 8.631875,18.82445 7.499125,18.9777 C7.059875,19.0372 6.607875,19.0037 6.161625,19.01145 C6.093625,19.01245 6.024625,18.99995 5.957125,19.00595 C5.563875,19.04095 5.293375,19.05745 5.220125,19.6487 C5.140375,20.29445 5.007625,20.93345 4.898625,21.57545 C4.840875,21.9147 4.658125,22.0717 4.315375,22.0722 C3.874375,22.0727 3.433625,22.07345 2.992625,22.0717 C2.690375,22.0707 2.591375,21.9482 2.639625,21.64845 C3.047375,19.1132 3.454625,16.57795 3.862125,14.0427 C3.895625,13.83445 3.933125,13.62695 3.965625,13.4187 C4.010875,13.12645 4.158125,12.9917 4.452125,12.99045 C5.035875,12.98795 5.619625,12.9897 6.203375,12.9897 C6.203375,13.00095 6.203375,13.0122 6.203375,13.02345" id="Fill-4" fill="#FFFFFF"></path>
                    <path d="M28.89245,17.239725 C29.3637,17.207975 29.8172,17.207475 30.26145,17.141475 C31.16745,17.006725 31.39195,16.336225 31.3417,15.614475 C31.3162,15.249475 31.1182,14.973225 30.7547,14.914975 C30.32395,14.846225 29.88245,14.837975 29.4447,14.822975 C29.31545,14.818475 29.2492,14.931725 29.22995,15.064225 C29.18745,15.358475 29.1377,15.651475 29.0922,15.945475 C29.0267,16.365975 28.9622,16.786725 28.89245,17.239725 M29.48745,13.024725 C30.1697,13.024725 30.85245,13.006475 31.53395,13.031725 C31.9367,13.046475 32.3252,13.165225 32.6897,13.353225 C33.33495,13.685725 33.68445,14.223225 33.7532,14.930725 C33.8482,15.908975 33.6842,16.838475 33.10195,17.656225 C32.53445,18.452725 31.7252,18.855975 30.77845,18.977975 C30.3447,19.033975 29.89995,19.004225 29.4602,19.012475 C29.41695,19.013225 29.37345,19.003975 29.3302,19.005225 C28.7817,19.021475 28.5672,19.110725 28.5047,19.672725 C28.4287,20.355975 28.2987,21.033225 28.1902,21.712725 C28.15095,21.959225 28.03695,22.057725 27.79045,22.058475 C27.28145,22.060225 26.77245,22.060975 26.2637,22.058225 C25.9862,22.056725 25.87945,21.928975 25.92295,21.655725 C26.3012,19.280475 26.6807,16.905225 27.05945,14.529725 C27.11495,14.180975 27.1692,13.831725 27.22145,13.482225 C27.2762,13.118225 27.4222,12.990225 27.79295,12.989725 C28.3577,12.989225 28.9227,12.989725 29.48745,12.989725 C29.48745,13.001475 29.48745,13.012975 29.48745,13.024725" id="Fill-6" fill="#FFFFFF"></path>
                    <path d="M37.226675,17.5284 C36.264675,17.51165 35.467925,18.2569 35.421675,19.21665 C35.394675,19.78015 35.657925,20.2479 36.105925,20.43215 C37.047675,20.81915 38.163425,20.2864 38.455175,19.31015 C38.749925,18.3244 38.212925,17.54565 37.226675,17.5284 M38.037175,21.3059 C37.787675,21.4749 37.534925,21.67565 37.255925,21.82865 C36.563425,22.20915 35.821425,22.3074 35.060175,22.09265 C34.052425,21.8084 33.476675,21.11065 33.339925,20.09065 C33.135425,18.5634 33.689925,17.33365 34.942925,16.44765 C35.808175,15.83565 36.786175,15.72665 37.804925,15.97315 C38.175425,16.0629 38.251925,16.13115 38.762925,16.63265 C38.788675,16.51215 38.805675,16.3984 38.837675,16.2889 C38.901425,16.0699 38.985925,16.00865 39.212675,16.0079 C39.659675,16.0069 40.106425,16.0074 40.553175,16.00765 C40.890425,16.0079 40.978425,16.11115 40.924175,16.46115 C40.803425,17.23915 40.678175,18.0164 40.554175,18.79365 C40.407675,19.7119 40.263175,20.6304 40.113175,21.5479 C40.052675,21.91815 39.879675,22.05865 39.507175,22.0589 C39.109925,22.0594 38.712925,22.0599 38.315675,22.0589 C38.069925,22.05815 37.978425,21.97015 37.986425,21.7204 C37.990925,21.57315 38.021675,21.4264 38.037175,21.3059" id="Fill-8" fill="#FFFFFF"></path>
                    <path d="M12.1573219,19.29185 C12.156325,19.8601 12.400575,20.2666 12.847825,20.43985 C13.824575,20.8181 14.936075,20.25835 15.208825,19.25085 C15.437075,18.4081 15.011075,17.6756 14.215575,17.54285 C13.145325,17.3641 12.159325,18.20185 12.1573219,19.29185 M15.500325,16.6396 C15.525325,16.50435 15.537825,16.38785 15.569825,16.2771 C15.618825,16.10685 15.721325,16.0031 15.918325,16.0056 C16.396325,16.01185 16.874575,16.0056 17.352575,16.0086 C17.593825,16.0101 17.705575,16.1436 17.668075,16.3806 C17.464325,17.6606 17.259075,18.9401 17.055325,20.2201 C16.988075,20.6426 16.921325,21.06535 16.857825,21.48835 C16.795825,21.9016 16.618325,22.0591 16.205075,22.05885 C15.813825,22.05885 15.422825,22.06035 15.031575,22.05835 C14.820575,22.05735 14.739825,21.98135 14.726825,21.77085 C14.722075,21.69085 14.729325,21.6096 14.737575,21.5296 C14.745825,21.4506 14.762075,21.37235 14.777825,21.2746 C14.601575,21.41085 14.451075,21.54935 14.280825,21.65585 C13.281825,22.2801 12.243825,22.4226 11.183825,21.82785 C10.534825,21.46385 10.196575,20.86335 10.083325,20.14185 C9.817325,18.44985 10.683325,16.8316 12.238325,16.1386 C12.995075,15.80135 13.787825,15.76835 14.586325,15.9891 C14.932575,16.08485 15.047075,16.1771 15.500325,16.6396" id="Fill-10" fill="#FFFFFF"></path>
                    <path d="M21.6191,19.412825 C21.77285,19.188325 21.90235,19.000075 22.03085,18.811075 C22.60285,17.969575 23.17735,17.130075 23.74435,16.285325 C23.87085,16.096575 24.0296,16.009325 24.2556,16.012325 C24.7086,16.018825 25.16185,16.015825 25.6151,16.013325 C25.7601,16.012575 25.88585,16.037575 25.9586,16.182075 C26.02935,16.321825 25.9641,16.427325 25.88685,16.539575 C24.18635,19.006325 22.4866,21.473575 20.7911,23.943575 C20.64685,24.153575 20.47085,24.250075 20.21485,24.243075 C19.7806,24.231325 19.34585,24.240075 18.91135,24.239825 C18.5451,24.239825 18.4276,24.061075 18.6241,23.746825 C18.9856,23.168825 19.37135,22.606075 19.7501,22.038825 C19.8706,21.858325 20.00835,21.689075 20.1221,21.504825 C20.1601,21.443575 20.17785,21.341575 20.15535,21.275075 C19.62835,19.713825 19.1056,18.150825 18.55585,16.597575 C18.38085,16.102825 18.59135,15.990575 18.97385,16.009825 C19.3701,16.029825 19.7681,16.013075 20.16535,16.014575 C20.49435,16.016075 20.65185,16.134075 20.7461,16.452825 C21.0161,17.368075 21.2841,18.283575 21.5531,19.199075 C21.57035,19.257075 21.58885,19.314575 21.6191,19.412825" id="Fill-12" fill="#FFFFFF"></path>
                    <path d="M43.5558,12.98975 C43.79155,12.98975 44.02755,12.9865 44.2633,12.99075 C44.4868,12.99475 44.60355,13.13475 44.5678,13.35725 C44.2798,15.157 43.99005,16.9565 43.7008,18.75625 C43.5493,19.699 43.40005,20.642 43.2453,21.58425 C43.18805,21.9325 43.02955,22.0585 42.67455,22.059 C42.30205,22.0595 41.92955,22.0615 41.5573,22.05825 C41.2573,22.0555 41.1773,21.9515 41.2233,21.655 C41.54955,19.55975 41.87405,17.46425 42.1998,15.369 C42.3093,14.6645 42.42005,13.96 42.5313,13.25575 C42.5608,13.06875 42.6513,12.9925 42.8483,12.99025 C43.08405,12.98775 43.32005,12.98975 43.5558,12.98975" id="Fill-14" fill="#FFFFFF"></path>
                    <path d="M5.594875,17.2527 C5.684625,16.6912 5.765875,16.1842 5.846875,15.67745 C5.879375,15.47545 5.914125,15.27395 5.943375,15.0717 C5.966125,14.9137 6.055125,14.81195 6.211375,14.8172 C6.606875,14.82995 7.005375,14.83445 7.395625,14.8902 C7.839875,14.95395 8.074375,15.2457 8.055875,15.69245 C8.045875,15.9422 7.991375,16.19595 7.917375,16.4357 C7.801625,16.8117 7.513625,17.04745 7.140875,17.10745 C6.642625,17.18795 6.134125,17.2052 5.594875,17.2527" id="Fill-16" fill="#757575"></path>
                    <path d="M28.89245,17.239725 C28.9622,16.786725 29.0267,16.365975 29.0922,15.945475 C29.1377,15.651475 29.18745,15.358475 29.22995,15.064225 C29.2492,14.931725 29.31545,14.818475 29.4447,14.822975 C29.88245,14.837975 30.32395,14.846225 30.7547,14.914975 C31.1182,14.973225 31.3162,15.249475 31.3417,15.614475 C31.39195,16.336225 31.16745,17.006725 30.26145,17.141475 C29.8172,17.207475 29.3637,17.207975 28.89245,17.239725" id="Fill-18" fill="#757575"></path>
                    <path d="M37.226675,17.5284 C38.212925,17.54565 38.749925,18.3244 38.455175,19.31015 C38.163425,20.2864 37.047675,20.81915 36.105925,20.43215 C35.657925,20.2479 35.394675,19.78015 35.421675,19.21665 C35.467925,18.2569 36.264675,17.51165 37.226675,17.5284" id="Fill-20" fill="#757575"></path>
                    <path d="M12.1573219,19.29185 C12.159325,18.20185 13.145325,17.3641 14.215575,17.54285 C15.011075,17.6756 15.437075,18.4081 15.208825,19.25085 C14.936075,20.25835 13.824575,20.8181 12.847825,20.43985 C12.400575,20.2666 12.156325,19.8601 12.1573219,19.29185" id="Fill-22" fill="#757575"></path>
                </g>
            </g>
        </g>
    </g>
</svg>