<?xml version="1.0" encoding="UTF-8"?>
<svg width="48px" height="37px" viewBox="0 0 48 37" version="1.1" xmlns="http://www.w3.org/2000/svg" xmlns:xlink="http://www.w3.org/1999/xlink">
    <!-- Generator: Sketch 55.2 (78181) - https://sketchapp.com -->
    <title>Group 18 Copy</title>
    <desc>Created with Sketch.</desc>
    <defs>
        <path d="M3.02175,0.069 C1.45075,0.069 0.17675,1.3425 0.17675,2.914 L0.17675,2.914 L0.17675,23.3025 C0.17675,24.87375 1.45075,26.1475 3.02175,26.1475 L3.02175,26.1475 L15.74025,26.1475 C17.3115,26.1475 18.58525,24.87375 18.58525,23.3025 L18.58525,23.3025 L18.58525,6.48275 L12.26375,0.069 L3.02175,0.069 Z" id="path-1"></path>
    </defs>
    <g id="Persönlicher-Bereich_closed" stroke="none" stroke-width="1" fill="none" fill-rule="evenodd">
        <g id="11:-Mietprozess-8-Zahlung-DP" transform="translate(-1025.000000, -925.000000)">
            <g id="Group-18-Copy" transform="translate(1025.000000, 925.000000)">
                <g id="Group-7" transform="translate(0.000000, 0.127500)">
                    <path d="M43.247475,0.056825 C44.865725,0.058325 46.079975,0.776575 46.856975,2.201075 C47.187975,2.807825 47.296475,3.472325 47.296475,4.159575 C47.295225,13.206325 47.295725,22.253075 47.295475,31.299825 C47.295475,31.815075 47.299975,32.330575 47.294225,32.845825 C47.273725,34.728825 46.006725,36.289075 44.166975,36.684325 C43.896225,36.742575 43.613225,36.766825 43.335975,36.767075 C32.786475,36.771075 22.236975,36.770595 11.687725,36.770595 C9.154475,36.770595 6.620975,36.770595 4.087725,36.770595 C2.032975,36.770595 0.390975,35.339825 0.132975,33.302825 C0.083225,32.910825 0.103475,32.509325 0.103475,32.112075 C0.102475,22.773575 0.102725,13.435075 0.103725,4.096575 C0.103975,2.386825 0.891975,1.165075 2.413725,0.411575 C2.969225,0.136325 3.570225,0.053825 4.185725,0.053825 C10.593475,0.054575 36.733975,0.050825 43.247475,0.056825" id="Fill-1" fill="#757575"></path>
                    <path d="M28.99185,17.04325 C29.0616,16.59025 29.1261,16.1695 29.1916,15.749 C29.2371,15.455 29.28685,15.16175 29.32935,14.86775 C29.3486,14.73525 29.41485,14.622 29.5441,14.6265 C29.98185,14.6415 30.42335,14.64975 30.8541,14.7185 C31.2176,14.77675 31.4156,15.053 31.4411,15.418 C31.49135,16.13975 31.26685,16.81025 30.36085,16.945 C29.9166,17.011 29.4631,17.0115 28.99185,17.04325" id="Fill-3" fill="#000000"></path>
                    <path d="M17.521875,5.319025 L26.763625,5.319025 L33.085375,11.732775 L33.085375,28.552525 C33.085375,30.123775 31.811625,31.397525 30.240375,31.397525 L17.521875,31.397525 C15.950625,31.397525 14.676875,30.123775 14.676875,28.552525 L14.676875,8.164025 C14.676875,6.592775 15.950625,5.319025 17.521875,5.319025" id="Fill-5" fill="#FFFFFF"></path>
                </g>
                <g id="Group-11" transform="translate(14.500000, 5.377500)">
                    <mask id="mask-2" fill="white">
                        <use xlink:href="#path-1"></use>
                    </mask>
                    <g id="Clip-9"></g>
                    <polygon id="Fill-8" fill="#FFFFFF" mask="url(#mask-2)" points="-43.25 501.25 127.4455 501.25 127.4455 -702.6275 -43.25 -702.6275"></polygon>
                    <polygon id="Fill-10" fill="#FFFFFF" mask="url(#mask-2)" points="-2.19375 28.51825 20.95625 28.51825 20.95625 -2.30175 -2.19375 -2.30175"></polygon>
                </g>
                <g id="Group-17" transform="translate(17.500000, 13.627500)" fill="#757575">
                    <polygon id="Fill-16" points="0.05325 2.51925 13.01925 2.51925 13.01925 0.01925 0.05325 0.01925"></polygon>
                    <polygon id="Fill-16-Copy" points="0.05325 7.51925 13.01925 7.51925 13.01925 5.01925 0.05325 5.01925"></polygon>
                    <polygon id="Fill-16-Copy-2" points="0.05325 12.51925 13.01925 12.51925 13.01925 10.01925 0.05325 10.01925"></polygon>
                </g>
            </g>
        </g>
    </g>
</svg>