<?xml version="1.0" encoding="UTF-8"?>
<svg width="48px" height="37px" viewBox="0 0 48 37" version="1.1" xmlns="http://www.w3.org/2000/svg" xmlns:xlink="http://www.w3.org/1999/xlink">
    <!-- Generator: Sketch 55.2 (78181) - https://sketchapp.com -->
    <title>Group 39</title>
    <desc>Created with Sketch.</desc>
    <defs>
        <polygon id="path-1" points="0 0.033 47.19775 0.033 47.19775 36.75 0 36.75"></polygon>
    </defs>
    <g id="Persönlicher-Bereich_closed" stroke="none" stroke-width="1" fill="none" fill-rule="evenodd">
        <g id="11:-Mietprozess-8-Zahlung-DP" transform="translate(-1025.000000, -798.000000)">
            <g id="Group-11-Copy" transform="translate(1025.000000, 798.000000)">
                <g id="Group-39">
                    <g id="Group-38">
                        <g id="Group-3" transform="translate(0.000000, 0.217000)">
                            <mask id="mask-2" fill="white">
                                <use xlink:href="#path-1"></use>
                            </mask>
                            <g id="Clip-2"></g>
                            <path d="M43.5558,12.7727 C43.32005,12.7727 43.08405,12.7707 42.8483,12.7732 C42.6513,12.77545 42.5608,12.8517 42.5313,13.0387 C42.42005,13.7432 42.3093,14.44745 42.1998,15.15195 C41.87405,17.2472 41.54955,19.3427 41.2233,21.43795 C41.1773,21.73445 41.2573,21.83845 41.5573,21.8412 C41.92955,21.84445 42.30205,21.84245 42.67455,21.84195 C43.02955,21.84145 43.18805,21.71545 43.2453,21.3672 C43.40005,20.42495 43.5493,19.48195 43.7008,18.5392 C43.99005,16.73945 44.2798,14.93995 44.5678,13.1402 C44.60355,12.9177 44.4868,12.7777 44.2633,12.7737 C44.02755,12.7697 43.79155,12.7727 43.5558,12.7727 M21.61905,19.19595 C21.5888,19.09745 21.5703,19.03995 21.5533,18.98195 C21.2843,18.0667 21.01605,17.15095 20.74605,16.23595 C20.65205,15.9172 20.4943,15.79895 20.1653,15.7977 C19.76805,15.79595 19.37005,15.8127 18.9738,15.79295 C18.5913,15.7737 18.3808,15.88595 18.5558,16.3807 C19.1058,17.93395 19.62855,19.4967 20.1553,21.0582 C20.1778,21.1247 20.16005,21.22645 20.1223,21.2877 C20.0083,21.47195 19.87055,21.64145 19.75005,21.82195 C19.37155,22.38895 18.9858,22.95195 18.62405,23.52995 C18.4278,23.84395 18.5453,24.0227 18.91155,24.02295 C19.34605,24.02295 19.7808,24.01445 20.2148,24.0262 C20.47105,24.03295 20.64705,23.9367 20.79105,23.7267 C22.4868,21.2567 24.1863,18.78945 25.8868,16.32245 C25.96405,16.2102 26.0293,16.10495 25.9588,15.96495 C25.8858,15.82045 25.76005,15.79545 25.61505,15.79645 C25.1618,15.79895 24.7088,15.8017 24.2558,15.79545 C24.0298,15.7922 23.87105,15.8797 23.7443,16.06845 C23.1773,16.9132 22.60305,17.7527 22.03105,18.59395 C21.90255,18.78295 21.7728,18.9712 21.61905,19.19595 M15.5003,16.42245 C15.04705,15.95995 14.93255,15.86795 14.5863,15.7722 C13.7878,15.5512 12.99505,15.58445 12.2383,15.9217 C10.6833,16.6147 9.8173,18.2327 10.0833,19.92495 C10.19655,20.64645 10.5348,21.2467 11.1838,21.61095 C12.2438,22.2057 13.2818,22.0632 14.2808,21.4387 C14.4513,21.3322 14.6018,21.19395 14.7778,21.0577 C14.76205,21.1552 14.7458,21.23345 14.73755,21.3127 C14.7293,21.3927 14.72205,21.47395 14.7268,21.55395 C14.7398,21.76445 14.82055,21.84045 15.0318,21.84145 C15.4228,21.84345 15.8138,21.84195 16.20505,21.84195 C16.6183,21.84195 16.79605,21.6847 16.8578,21.27145 C16.9213,20.8482 16.98805,20.4257 17.0553,20.0032 C17.25905,18.7232 17.46455,17.44345 17.66805,16.1637 C17.7058,15.9267 17.5938,15.7932 17.35255,15.7917 C16.87455,15.7887 16.3963,15.79495 15.91855,15.7887 C15.7213,15.7862 15.6188,15.8897 15.5698,16.0602 C15.5378,16.17095 15.52555,16.28745 15.5003,16.42245 M38.03705,21.08895 C38.02155,21.20945 37.99105,21.35595 37.9863,21.50345 C37.97855,21.7532 38.07005,21.8412 38.3158,21.8417 C38.7128,21.84295 39.11005,21.84245 39.5073,21.84195 C39.8798,21.84145 40.05255,21.7012 40.11305,21.33095 C40.26305,20.4132 40.4078,19.49495 40.55405,18.5767 C40.67805,17.7992 40.80355,17.0222 40.9243,16.2442 C40.97855,15.8942 40.8903,15.79095 40.5533,15.7907 C40.1063,15.79045 39.65955,15.7897 39.2128,15.79095 C38.98605,15.7917 38.90155,15.8527 38.83755,16.07195 C38.8058,16.18145 38.7888,16.2952 38.76305,16.4157 C38.2518,15.9142 38.17555,15.84595 37.80505,15.7562 C36.78605,15.5097 35.8083,15.6187 34.9428,16.23045 C33.6898,17.11645 33.1353,18.34645 33.34005,19.8737 C33.47655,20.8937 34.0523,21.59145 35.06005,21.8757 C35.82155,22.09045 36.56355,21.9922 37.25605,21.6117 C37.5348,21.45845 37.78755,21.25795 38.03705,21.08895 M29.48755,12.8077 C29.4873,12.79595 29.4873,12.78445 29.4873,12.7727 C28.92255,12.7727 28.3578,12.7722 27.79305,12.77295 C27.4223,12.7732 27.27605,12.9012 27.22155,13.2652 C27.16905,13.6147 27.11505,13.96395 27.05955,14.31295 C26.6808,16.6882 26.3013,19.06345 25.9228,21.4387 C25.8793,21.71195 25.9863,21.8397 26.26355,21.8412 C26.77255,21.84395 27.28155,21.8432 27.79055,21.84145 C28.03705,21.8407 28.1508,21.7422 28.19005,21.4957 C28.29855,20.8162 28.4288,20.13895 28.5048,19.4557 C28.5673,18.8937 28.7818,18.80445 29.3303,18.7882 C29.37355,18.78695 29.41705,18.79645 29.4603,18.79545 C29.90005,18.7872 30.3448,18.81695 30.77855,18.76095 C31.72505,18.63895 32.53455,18.2357 33.1018,17.4392 C33.6843,16.62145 33.84805,15.69195 33.7533,14.7137 C33.68455,14.0062 33.33505,13.4687 32.6898,13.1362 C32.32505,12.94845 31.93655,12.82945 31.5338,12.8147 C30.85255,12.78945 30.16955,12.8077 29.48755,12.8077 M6.2033,12.80645 C6.2033,12.7952 6.2033,12.78395 6.2033,12.7727 C5.61955,12.7727 5.03605,12.77095 4.4523,12.77345 C4.15805,12.7747 4.0108,12.90945 3.96555,13.2017 C3.9333,13.40995 3.89555,13.61745 3.86205,13.8257 C3.45455,16.36095 3.04755,18.8962 2.63955,21.43145 C2.5913,21.7312 2.6903,21.8537 2.99255,21.8547 C3.43355,21.85645 3.8743,21.8557 4.3153,21.8552 C4.65805,21.8547 4.84105,21.6977 4.89855,21.35845 C5.0078,20.71645 5.1403,20.07745 5.22005,19.43195 C5.2933,18.84045 5.5638,18.82395 5.95705,18.78895 C6.02455,18.78295 6.09355,18.79545 6.1618,18.79445 C6.60805,18.7867 7.0598,18.8202 7.49905,18.7607 C8.63205,18.60745 9.5413,18.0802 10.0808,17.03345 C10.4638,16.2902 10.58005,15.48995 10.47905,14.66445 C10.3923,13.9557 10.03555,13.40745 9.3718,13.1222 C9.0183,12.9702 8.6303,12.84695 8.2503,12.81995 C7.57105,12.7717 6.88605,12.80645 6.2033,12.80645 M43.14805,0.03645 C44.7663,0.0377 45.9808,0.75595 46.75755,2.1807 C47.08855,2.78745 47.1973,3.45195 47.19705,4.13895 C47.1958,13.1857 47.1963,22.23245 47.1963,31.2792 C47.1963,31.79445 47.20055,32.30995 47.19505,32.8252 C47.1743,34.70845 45.9073,36.2687 44.06755,36.6637 C43.7968,36.72195 43.5138,36.74645 43.23655,36.74645 C32.68705,36.7507 22.1378,36.750001 11.5883,36.750001 C9.05505,36.750001 6.52155,36.750001 3.9883,36.750001 C1.93355,36.750001 0.29155,35.3192 0.03355,33.2822 C-0.0162,32.89045 0.00405,32.4887 0.00405,32.0917 C0.00305,22.75295 0.0033,13.41445 0.0043,4.07595 C0.00455,2.3662 0.79255,1.1447 2.3143,0.39095 C2.8698,0.11595 3.47105,0.03345 4.0863,0.03345 C10.49405,0.0342 36.6348,0.03045 43.14805,0.03645" id="Fill-1" fill="#757575" mask="url(#mask-2)"></path>
                        </g>
                        <path d="M5.594875,17.2527 C6.134125,17.2052 6.642625,17.18795 7.140875,17.10745 C7.513625,17.04745 7.801625,16.8117 7.917375,16.4357 C7.991375,16.19595 8.045875,15.9422 8.055875,15.69245 C8.074375,15.2457 7.839875,14.95395 7.395625,14.8902 C7.005375,14.83445 6.606875,14.82995 6.211375,14.8172 C6.055125,14.81195 5.966125,14.9137 5.943375,15.0717 C5.914125,15.27395 5.879375,15.47545 5.846875,15.67745 C5.765875,16.1842 5.684625,16.6912 5.594875,17.2527 M6.203375,13.02345 C6.885875,13.02345 7.571125,12.9887 8.250125,13.03695 C8.630375,13.06395 9.018375,13.1872 9.371875,13.3392 C10.035625,13.62445 10.392375,14.1727 10.479125,14.88145 C10.579875,15.70695 10.463625,16.5072 10.080625,17.25045 C9.541375,18.2972 8.631875,18.82445 7.499125,18.9777 C7.059875,19.0372 6.607875,19.0037 6.161625,19.01145 C6.093625,19.01245 6.024625,18.99995 5.957125,19.00595 C5.563875,19.04095 5.293375,19.05745 5.220125,19.6487 C5.140375,20.29445 5.007625,20.93345 4.898625,21.57545 C4.840875,21.9147 4.658125,22.0717 4.315375,22.0722 C3.874375,22.0727 3.433625,22.07345 2.992625,22.0717 C2.690375,22.0707 2.591375,21.9482 2.639625,21.64845 C3.047375,19.1132 3.454625,16.57795 3.862125,14.0427 C3.895625,13.83445 3.933125,13.62695 3.965625,13.4187 C4.010875,13.12645 4.158125,12.9917 4.452125,12.99045 C5.035875,12.98795 5.619625,12.9897 6.203375,12.9897 C6.203375,13.00095 6.203375,13.0122 6.203375,13.02345" id="Fill-4" fill="#FFFFFF"></path>
                        <path d="M28.89245,17.239725 C29.3637,17.207975 29.8172,17.207475 30.26145,17.141475 C31.16745,17.006725 31.39195,16.336225 31.3417,15.614475 C31.3162,15.249475 31.1182,14.973225 30.7547,14.914975 C30.32395,14.846225 29.88245,14.837975 29.4447,14.822975 C29.31545,14.818475 29.2492,14.931725 29.22995,15.064225 C29.18745,15.358475 29.1377,15.651475 29.0922,15.945475 C29.0267,16.365975 28.9622,16.786725 28.89245,17.239725 M29.48745,13.024725 C30.1697,13.024725 30.85245,13.006475 31.53395,13.031725 C31.9367,13.046475 32.3252,13.165225 32.6897,13.353225 C33.33495,13.685725 33.68445,14.223225 33.7532,14.930725 C33.8482,15.908975 33.6842,16.838475 33.10195,17.656225 C32.53445,18.452725 31.7252,18.855975 30.77845,18.977975 C30.3447,19.033975 29.89995,19.004225 29.4602,19.012475 C29.41695,19.013225 29.37345,19.003975 29.3302,19.005225 C28.7817,19.021475 28.5672,19.110725 28.5047,19.672725 C28.4287,20.355975 28.2987,21.033225 28.1902,21.712725 C28.15095,21.959225 28.03695,22.057725 27.79045,22.058475 C27.28145,22.060225 26.77245,22.060975 26.2637,22.058225 C25.9862,22.056725 25.87945,21.928975 25.92295,21.655725 C26.3012,19.280475 26.6807,16.905225 27.05945,14.529725 C27.11495,14.180975 27.1692,13.831725 27.22145,13.482225 C27.2762,13.118225 27.4222,12.990225 27.79295,12.989725 C28.3577,12.989225 28.9227,12.989725 29.48745,12.989725 C29.48745,13.001475 29.48745,13.012975 29.48745,13.024725" id="Fill-6" fill="#FFFFFF"></path>
                        <path d="M37.226675,17.5284 C36.264675,17.51165 35.467925,18.2569 35.421675,19.21665 C35.394675,19.78015 35.657925,20.2479 36.105925,20.43215 C37.047675,20.81915 38.163425,20.2864 38.455175,19.31015 C38.749925,18.3244 38.212925,17.54565 37.226675,17.5284 M38.037175,21.3059 C37.787675,21.4749 37.534925,21.67565 37.255925,21.82865 C36.563425,22.20915 35.821425,22.3074 35.060175,22.09265 C34.052425,21.8084 33.476675,21.11065 33.339925,20.09065 C33.135425,18.5634 33.689925,17.33365 34.942925,16.44765 C35.808175,15.83565 36.786175,15.72665 37.804925,15.97315 C38.175425,16.0629 38.251925,16.13115 38.762925,16.63265 C38.788675,16.51215 38.805675,16.3984 38.837675,16.2889 C38.901425,16.0699 38.985925,16.00865 39.212675,16.0079 C39.659675,16.0069 40.106425,16.0074 40.553175,16.00765 C40.890425,16.0079 40.978425,16.11115 40.924175,16.46115 C40.803425,17.23915 40.678175,18.0164 40.554175,18.79365 C40.407675,19.7119 40.263175,20.6304 40.113175,21.5479 C40.052675,21.91815 39.879675,22.05865 39.507175,22.0589 C39.109925,22.0594 38.712925,22.0599 38.315675,22.0589 C38.069925,22.05815 37.978425,21.97015 37.986425,21.7204 C37.990925,21.57315 38.021675,21.4264 38.037175,21.3059" id="Fill-8" fill="#FFFFFF"></path>
                        <path d="M12.1573219,19.29185 C12.156325,19.8601 12.400575,20.2666 12.847825,20.43985 C13.824575,20.8181 14.936075,20.25835 15.208825,19.25085 C15.437075,18.4081 15.011075,17.6756 14.215575,17.54285 C13.145325,17.3641 12.159325,18.20185 12.1573219,19.29185 M15.500325,16.6396 C15.525325,16.50435 15.537825,16.38785 15.569825,16.2771 C15.618825,16.10685 15.721325,16.0031 15.918325,16.0056 C16.396325,16.01185 16.874575,16.0056 17.352575,16.0086 C17.593825,16.0101 17.705575,16.1436 17.668075,16.3806 C17.464325,17.6606 17.259075,18.9401 17.055325,20.2201 C16.988075,20.6426 16.921325,21.06535 16.857825,21.48835 C16.795825,21.9016 16.618325,22.0591 16.205075,22.05885 C15.813825,22.05885 15.422825,22.06035 15.031575,22.05835 C14.820575,22.05735 14.739825,21.98135 14.726825,21.77085 C14.722075,21.69085 14.729325,21.6096 14.737575,21.5296 C14.745825,21.4506 14.762075,21.37235 14.777825,21.2746 C14.601575,21.41085 14.451075,21.54935 14.280825,21.65585 C13.281825,22.2801 12.243825,22.4226 11.183825,21.82785 C10.534825,21.46385 10.196575,20.86335 10.083325,20.14185 C9.817325,18.44985 10.683325,16.8316 12.238325,16.1386 C12.995075,15.80135 13.787825,15.76835 14.586325,15.9891 C14.932575,16.08485 15.047075,16.1771 15.500325,16.6396" id="Fill-10" fill="#FFFFFF"></path>
                        <path d="M21.6191,19.412825 C21.77285,19.188325 21.90235,19.000075 22.03085,18.811075 C22.60285,17.969575 23.17735,17.130075 23.74435,16.285325 C23.87085,16.096575 24.0296,16.009325 24.2556,16.012325 C24.7086,16.018825 25.16185,16.015825 25.6151,16.013325 C25.7601,16.012575 25.88585,16.037575 25.9586,16.182075 C26.02935,16.321825 25.9641,16.427325 25.88685,16.539575 C24.18635,19.006325 22.4866,21.473575 20.7911,23.943575 C20.64685,24.153575 20.47085,24.250075 20.21485,24.243075 C19.7806,24.231325 19.34585,24.240075 18.91135,24.239825 C18.5451,24.239825 18.4276,24.061075 18.6241,23.746825 C18.9856,23.168825 19.37135,22.606075 19.7501,22.038825 C19.8706,21.858325 20.00835,21.689075 20.1221,21.504825 C20.1601,21.443575 20.17785,21.341575 20.15535,21.275075 C19.62835,19.713825 19.1056,18.150825 18.55585,16.597575 C18.38085,16.102825 18.59135,15.990575 18.97385,16.009825 C19.3701,16.029825 19.7681,16.013075 20.16535,16.014575 C20.49435,16.016075 20.65185,16.134075 20.7461,16.452825 C21.0161,17.368075 21.2841,18.283575 21.5531,19.199075 C21.57035,19.257075 21.58885,19.314575 21.6191,19.412825" id="Fill-12" fill="#FFFFFF"></path>
                        <path d="M43.5558,12.98975 C43.79155,12.98975 44.02755,12.9865 44.2633,12.99075 C44.4868,12.99475 44.60355,13.13475 44.5678,13.35725 C44.2798,15.157 43.99005,16.9565 43.7008,18.75625 C43.5493,19.699 43.40005,20.642 43.2453,21.58425 C43.18805,21.9325 43.02955,22.0585 42.67455,22.059 C42.30205,22.0595 41.92955,22.0615 41.5573,22.05825 C41.2573,22.0555 41.1773,21.9515 41.2233,21.655 C41.54955,19.55975 41.87405,17.46425 42.1998,15.369 C42.3093,14.6645 42.42005,13.96 42.5313,13.25575 C42.5608,13.06875 42.6513,12.9925 42.8483,12.99025 C43.08405,12.98775 43.32005,12.98975 43.5558,12.98975" id="Fill-14" fill="#FFFFFF"></path>
                        <path d="M5.594875,17.2527 C5.684625,16.6912 5.765875,16.1842 5.846875,15.67745 C5.879375,15.47545 5.914125,15.27395 5.943375,15.0717 C5.966125,14.9137 6.055125,14.81195 6.211375,14.8172 C6.606875,14.82995 7.005375,14.83445 7.395625,14.8902 C7.839875,14.95395 8.074375,15.2457 8.055875,15.69245 C8.045875,15.9422 7.991375,16.19595 7.917375,16.4357 C7.801625,16.8117 7.513625,17.04745 7.140875,17.10745 C6.642625,17.18795 6.134125,17.2052 5.594875,17.2527" id="Fill-16" fill="#000000"></path>
                        <path d="M28.89245,17.239725 C28.9622,16.786725 29.0267,16.365975 29.0922,15.945475 C29.1377,15.651475 29.18745,15.358475 29.22995,15.064225 C29.2492,14.931725 29.31545,14.818475 29.4447,14.822975 C29.88245,14.837975 30.32395,14.846225 30.7547,14.914975 C31.1182,14.973225 31.3162,15.249475 31.3417,15.614475 C31.39195,16.336225 31.16745,17.006725 30.26145,17.141475 C29.8172,17.207475 29.3637,17.207975 28.89245,17.239725" id="Fill-18" fill="#000000"></path>
                        <path d="M37.226675,17.5284 C38.212925,17.54565 38.749925,18.3244 38.455175,19.31015 C38.163425,20.2864 37.047675,20.81915 36.105925,20.43215 C35.657925,20.2479 35.394675,19.78015 35.421675,19.21665 C35.467925,18.2569 36.264675,17.51165 37.226675,17.5284" id="Fill-20" fill="#000000"></path>
                        <path d="M12.1573219,19.29185 C12.159325,18.20185 13.145325,17.3641 14.215575,17.54285 C15.011075,17.6756 15.437075,18.4081 15.208825,19.25085 C14.936075,20.25835 13.824575,20.8181 12.847825,20.43985 C12.400575,20.2666 12.156325,19.8601 12.1573219,19.29185" id="Fill-22" fill="#000000"></path>
                        <path d="M15.5877,18.568625 C15.3887,18.568625 15.1947,18.572875 15.0007,18.566625 C14.9182,18.563875 14.8792,18.593625 14.84695,18.667875 C14.65845,19.098125 14.46495,19.526375 14.2737,19.955625 C14.2597,19.987125 14.2502,20.020625 14.23445,20.065375 C14.2947,20.065375 14.33895,20.065375 14.3832,20.065375 C14.8702,20.065375 15.3572,20.068125 15.8442,20.063125 C15.93595,20.062125 15.97895,20.091125 16.01445,20.174375 C16.2432,20.709375 16.56445,21.185375 16.9632,21.607125 C18.72995,23.475375 21.62445,23.715875 23.6737,22.170125 C23.73595,22.123375 23.75995,22.076625 23.75945,21.999375 C23.7562,21.443625 23.75795,20.887875 23.75745,20.332125 C23.75745,20.298625 23.75245,20.265125 23.7482,20.211125 C22.97495,21.145375 22.0102,21.644875 20.81045,21.613625 C19.6142,21.582375 18.67845,21.043625 17.9527,20.065375 C18.03545,20.065375 18.0837,20.065375 18.1322,20.065375 C19.28045,20.065375 20.42895,20.063875 21.57745,20.068125 C21.6832,20.068375 21.73245,20.034375 21.7757,19.939875 C21.9657,19.523375 22.16495,19.111125 22.3602,18.697125 C22.3767,18.662125 22.38995,18.625875 22.41345,18.568625 C22.3472,18.568625 22.3002,18.568625 22.25295,18.568625 C21.71745,18.568625 21.1817,18.568625 20.64595,18.568625 C19.59895,18.568625 18.55195,18.566875 17.50495,18.571125 C17.3992,18.571375 17.3592,18.537125 17.3562,18.436125 C17.35095,18.258125 17.33195,18.080125 17.3352,17.902625 C17.33845,17.721125 17.34695,17.721375 17.53195,17.721125 C19.23645,17.721125 20.94095,17.719875 22.6452,17.724375 C22.7652,17.724625 22.8222,17.686375 22.87345,17.580375 C23.0752,17.164875 23.28795,16.754875 23.4962,16.342625 C23.5152,16.305125 23.5312,16.266125 23.5577,16.207875 L17.8402,16.207875 C18.3147,15.439125 18.94745,14.898125 19.7832,14.640625 C21.36845,14.151875 22.67945,14.624375 23.7542,15.856375 C23.9272,15.491625 24.09445,15.131625 24.26945,14.775625 C24.31045,14.692625 24.3032,14.642875 24.2367,14.578375 C23.02845,13.403125 21.58845,12.881625 19.91695,13.130625 C18.07595,13.404875 16.7767,14.433625 15.99495,16.118125 C15.96495,16.182875 15.9332,16.209625 15.86145,16.208625 C15.57745,16.205125 15.2932,16.210125 15.0092,16.205625 C14.92595,16.204375 14.87995,16.228125 14.8412,16.306875 C14.62845,16.739375 14.4082,17.168625 14.1912,17.599125 C14.17395,17.633125 14.16095,17.669125 14.1357,17.727875 L15.5877,17.727875 L15.5877,18.568625 Z M27.40995,20.503625 C27.47645,20.503625 27.5242,20.503625 27.5722,20.503625 C28.61445,20.504625 29.6567,20.512375 30.6987,20.502875 C31.0642,20.499375 31.42845,20.435375 31.7667,20.291125 C32.54745,19.958625 32.9992,19.348125 33.1287,18.525375 C33.21795,17.958625 33.24645,17.380625 33.2757,16.806125 C33.30995,16.133625 33.21795,15.474625 33.0202,14.827125 C32.80345,14.116375 32.36645,13.631125 31.6637,13.380625 C31.08045,13.172625 30.47795,13.072875 29.86295,13.069875 C28.19545,13.061875 26.52795,13.068125 24.86045,13.0648733 C24.75095,13.064625 24.71695,13.091625 24.71695,13.205625 C24.71995,16.470625 24.71945,19.735625 24.7197,23.000625 C24.7197,23.043375 24.72345,23.086375 24.72545,23.129125 L27.40995,23.129125 L27.40995,20.503625 Z M42.3977,23.136375 C42.38345,23.082125 42.3757,23.046875 42.3652,23.012875 C41.3622,19.741375 40.35845,16.470125 39.3587,13.197875 C39.32595,13.090875 39.27945,13.0643693 39.1737,13.064625 C37.89145,13.068375 36.6092,13.068875 35.3272,13.0643693 C35.2137,13.063875 35.16745,13.096375 35.1347,13.205375 C34.15545,16.471375 33.17245,19.736125 32.1902,23.001125 C32.17795,23.041875 32.16945,23.083875 32.1577,23.130875 L34.9337,23.130875 C34.94595,23.091875 34.9572,23.057375 34.96745,23.022375 C35.1132,22.525125 35.2612,22.028125 35.4022,21.529625 C35.42945,21.433375 35.4667,21.393875 35.57445,21.394375 C36.70245,21.398625 37.83045,21.398625 38.95845,21.394375 C39.0687,21.393875 39.1092,21.430375 39.13795,21.534125 C39.27395,22.025625 39.4242,22.513625 39.55895,23.005625 C39.5887,23.114375 39.6347,23.139375 39.74095,23.1388823 C40.5767,23.134125 41.4127,23.136375 42.24845,23.136375 C42.2927,23.136375 42.33695,23.136375 42.3977,23.136375 L42.3977,23.136375 Z M5.3322,19.852625 C5.3132,20.398125 5.3157,20.928875 5.4567,21.447375 C5.5522,21.799125 5.6827,22.136875 5.9732,22.379375 C6.25295,22.612625 6.5737,22.775375 6.9192,22.892125 C7.48045,23.081875 8.0657,23.104875 8.64745,23.127625 C9.2472,23.151125 9.8487,23.144625 10.44895,23.133625 C11.02045,23.123125 11.59395,23.111625 12.1482,22.942875 C12.6437,22.792375 13.0852,22.556375 13.40295,22.131875 C13.6752,21.768125 13.7567,21.335375 13.8237,20.902625 C13.92145,20.272875 13.8882,19.641625 13.82345,19.009875 C13.76295,18.418125 13.4887,17.959125 12.99795,17.630125 C12.5712,17.344125 12.0917,17.193875 11.5852,17.151375 C10.66845,17.074125 9.74995,17.020125 8.8332,16.945875 C8.65845,16.931625 8.4782,16.889375 8.31845,16.818875 C8.21395,16.772875 8.0977,16.666875 8.0652,16.563125 C8.0022,16.361375 7.96895,16.142125 7.96995,15.930375 C7.9712,15.642625 8.0692,15.382875 8.3642,15.260375 C8.4867,15.209625 8.61795,15.174625 8.74845,15.150375 C9.2442,15.058375 9.7437,15.085375 10.24045,15.134375 C10.7832,15.187875 10.98345,15.417125 11.0002,15.965625 C11.00295,16.056875 11.0007,16.148625 11.0007,16.241125 L13.53795,16.241125 C13.53795,15.980875 13.54795,15.725875 13.53495,15.472375 C13.52295,15.238375 13.50645,15.001375 13.4562,14.773625 C13.3462,14.273625 13.1132,13.843625 12.6477,13.584125 C12.1412,13.301875 11.5937,13.135375 11.0157,13.107625 C10.3677,13.076625 9.7182,13.071125 9.0692,13.0696088 C8.45995,13.068625 7.85345,13.113625 7.2572,13.252375 C6.91345,13.332625 6.5672,13.408625 6.2697,13.612625 C5.82095,13.920125 5.58345,14.369375 5.4512,14.879875 C5.2867,15.514375 5.2977,16.157125 5.38845,16.800625 C5.4162,16.996875 5.4602,17.190875 5.4947,17.386375 C5.61595,18.068625 6.0402,18.483375 6.66395,18.732875 C7.15045,18.927375 7.6617,18.978375 8.17495,19.019125 C8.9757,19.082375 9.77695,19.137125 10.57795,19.195125 C10.9502,19.222125 11.18145,19.458625 11.19345,19.832875 C11.1987,20.003125 11.1817,20.174625 11.19695,20.343625 C11.2242,20.645875 10.96095,20.884875 10.7357,20.930125 C10.5497,20.967625 10.3602,21.004375 10.17145,21.008375 C9.6522,21.018875 9.1327,21.014375 8.6132,21.009625 C8.52195,21.008875 8.4252,20.992875 8.34095,20.959375 C7.97895,20.814625 7.86245,20.511625 7.8442,20.152875 C7.8392,20.053875 7.84345,19.954375 7.84345,19.852625 L5.3322,19.852625 Z M1.94245,4.415625 L45.77445,4.415625 L45.77445,31.825625 C45.71745,31.824875 45.6607,31.823875 45.60395,31.823875 C31.10845,31.823875 16.6132,31.823875 2.11795,31.823875 L1.9442,31.823875 L1.9442,31.639875 C1.9442,22.621875 1.9442,13.603875 1.9442,4.585875 C1.9442,4.529125 1.94295,4.472375 1.94245,4.415625 L1.94245,4.415625 Z" id="Fill-24" fill="#757575"></path>
                        <path d="M5.332175,19.8527 L7.843425,19.8527 C7.843425,19.95445 7.839175,20.05395 7.844175,20.15295 C7.862425,20.5117 7.978925,20.8147 8.340925,20.9592 C8.425175,20.99295 8.521925,21.00895 8.613175,21.0097 C9.132675,21.0142 9.652175,21.0187 10.171425,21.0082 C10.360175,21.00445 10.549925,20.9677 10.735925,20.9302 C10.960925,20.88495 11.224175,20.64595 11.196925,20.3437 C11.181675,20.1747 11.198925,20.00295 11.193425,19.83295 C11.181425,19.4587 10.950175,19.2222 10.577925,19.1952 C9.776925,19.1372 8.975675,19.08245 8.174925,19.01895 C7.661675,18.97845 7.150425,18.92745 6.663925,18.73295 C6.040175,18.4832 5.615925,18.0687 5.494925,17.38645 C5.460175,17.19095 5.416175,16.99695 5.388425,16.80045 C5.297675,16.1572 5.286675,15.5142 5.451175,14.87995 C5.583425,14.3692 5.820925,13.91995 6.269675,13.61245 C6.567175,13.4087 6.913675,13.33245 7.257425,13.25245 C7.853425,13.11345 8.459925,13.06845 9.069175,13.0696748 C9.718175,13.07095 10.367675,13.0767 11.015675,13.1077 C11.593675,13.13545 12.141175,13.30195 12.647675,13.5842 C13.113175,13.84345 13.346425,14.2737 13.456175,14.7737 C13.506425,15.00145 13.522925,15.23845 13.534925,15.47245 C13.547925,15.72595 13.537925,15.9807 13.537925,16.24095 L11.000675,16.24095 C11.000675,16.1487 11.003175,16.05695 11.000175,15.9657 C10.983425,15.4172 10.783175,15.1877 10.240425,15.1342 C9.743675,15.0852 9.244175,15.05845 8.748425,15.15045 C8.617925,15.1747 8.486675,15.2097 8.364175,15.26045 C8.069175,15.38295 7.971175,15.6427 7.969925,15.93045 C7.968925,16.1422 8.002175,16.3612 8.065175,16.5632 C8.097675,16.6667 8.214175,16.77295 8.318425,16.81895 C8.478175,16.8892 8.658425,16.9317 8.833175,16.94595 C9.749925,17.0202 10.668675,17.07395 11.585175,17.1512 C12.091925,17.19395 12.571175,17.3442 12.997925,17.6302 C13.488675,17.9592 13.762925,18.41795 13.823425,19.00995 C13.888175,19.64145 13.921425,20.2727 13.823675,20.90245 C13.756675,21.33545 13.675175,21.7682 13.402925,22.13195 C13.085175,22.5562 12.643675,22.7922 12.148425,22.94295 C11.593925,23.1117 11.020425,23.1232 10.448925,23.13345 C9.848675,23.14445 9.247175,23.1512 8.647425,23.1277 C8.065675,23.1047 7.480425,23.08195 6.919175,22.8922 C6.573675,22.77545 6.252925,22.6127 5.973175,22.3792 C5.682675,22.13695 5.552175,21.7992 5.456675,21.44745 C5.315925,20.9287 5.313175,20.3982 5.332175,19.8527" id="Fill-26" fill="#FFFFFF"></path>
                        <path d="M38.50725,19.362375 C38.09925,17.953625 37.695,16.558125 37.29075,15.162625 C37.28075,15.164125 37.271,15.165625 37.261,15.167125 C36.854,16.562125 36.447,17.957375 36.03725,19.362375 L38.50725,19.362375 Z M42.39775,23.136375 C42.337,23.136375 42.29275,23.136375 42.2485,23.136375 C41.4125,23.136375 40.57675,23.134125 39.741,23.1388823 C39.63475,23.139375 39.58875,23.114375 39.559,23.005625 C39.42425,22.513625 39.274,22.025625 39.138,21.534125 C39.10925,21.430375 39.06875,21.393875 38.9585,21.394375 C37.8305,21.398625 36.7025,21.398625 35.5745,21.394375 C35.46675,21.393875 35.4295,21.433375 35.40225,21.529625 C35.261,22.028125 35.11325,22.525125 34.9675,23.022375 C34.95725,23.057375 34.946,23.091875 34.93375,23.130875 L32.15775,23.130875 C32.1695,23.083875 32.178,23.041875 32.19025,23.001125 C33.1725,19.736125 34.15525,16.471375 35.13475,13.205375 C35.16725,13.096375 35.21375,13.063875 35.327,13.0643693 C36.60925,13.068875 37.8915,13.068375 39.1735,13.064625 C39.2795,13.0643693 39.326,13.090875 39.35875,13.197875 C40.35825,16.470125 41.36225,19.741375 42.36525,23.012875 C42.37575,23.046875 42.3835,23.082125 42.39775,23.136375 L42.39775,23.136375 Z" id="Fill-28" fill="#FFFFFF"></path>
                        <path d="M27.4191,18.204825 C27.44885,18.207825 27.4721,18.212075 27.4956,18.212075 C28.0916,18.212575 28.6881,18.225075 29.28335,18.206325 C29.5266,18.198575 29.77135,18.137325 30.0081,18.073575 C30.19485,18.023325 30.34685,17.900575 30.37835,17.693825 C30.4726,17.077825 30.49935,16.460825 30.38085,15.843575 C30.3401,15.630325 30.2336,15.471325 30.0401,15.369075 C29.80785,15.246075 29.55685,15.207825 29.29985,15.206075 C28.7161,15.202075 28.1321,15.204825 27.5481,15.204825 L27.4191,15.204825 L27.4191,18.204825 Z M27.40985,20.503575 L27.40985,23.129075 L24.72535,23.129075 C24.72335,23.086325 24.7196,23.043575 24.7196,23.000575 C24.71935,19.735575 24.7201,16.470575 24.71685,13.205575 C24.71685,13.091575 24.75085,13.064575 24.86035,13.0648233 C26.52785,13.068075 28.1956,13.061825 29.86285,13.069825 C30.47785,13.072825 31.08035,13.172575 31.6636,13.380575 C32.3666,13.631075 32.80335,14.116325 33.02035,14.827075 C33.21785,15.474575 33.30985,16.133575 33.2756,16.806325 C33.2466,17.380575 33.2181,17.958575 33.12885,18.525325 C32.9991,19.348075 32.5476,19.958825 31.76685,20.291075 C31.42835,20.435325 31.0641,20.499325 30.69885,20.502825 C29.6566,20.512575 28.61435,20.504575 27.5721,20.503575 C27.52435,20.503575 27.47635,20.503575 27.40985,20.503575 L27.40985,20.503575 Z" id="Fill-30" fill="#FFFFFF"></path>
                        <path d="M15.5877,18.568625 L15.5877,17.727875 L14.1357,17.727875 C14.16095,17.669125 14.17395,17.633125 14.1912,17.599125 C14.4082,17.168625 14.62845,16.739375 14.8412,16.306875 C14.87995,16.228125 14.92595,16.204375 15.0092,16.205625 C15.2932,16.210125 15.57745,16.205125 15.86145,16.208625 C15.9332,16.209625 15.96495,16.182875 15.99495,16.118125 C16.7767,14.433625 18.07595,13.404875 19.91695,13.130625 C21.58845,12.881625 23.02845,13.403125 24.2367,14.578375 C24.3032,14.642875 24.31045,14.692625 24.26945,14.775625 C24.09445,15.131625 23.9272,15.491625 23.7542,15.856375 C22.67945,14.624375 21.36845,14.151875 19.7832,14.640625 C18.94745,14.898125 18.3147,15.439125 17.8402,16.207875 L23.5577,16.207875 C23.5312,16.266125 23.5152,16.305125 23.4962,16.342625 C23.28795,16.754875 23.0752,17.164875 22.87345,17.580375 C22.8222,17.686375 22.7652,17.724625 22.6452,17.724375 C20.94095,17.719875 19.23645,17.721125 17.53195,17.721125 C17.34695,17.721375 17.33845,17.721125 17.3352,17.902625 C17.33195,18.080125 17.35095,18.258125 17.3562,18.436125 C17.3592,18.537125 17.3992,18.571375 17.50495,18.571125 C18.55195,18.566875 19.59895,18.568625 20.64595,18.568625 C21.1817,18.568625 21.71745,18.568625 22.25295,18.568625 C22.3002,18.568625 22.3472,18.568625 22.41345,18.568625 C22.38995,18.625875 22.3767,18.662125 22.3602,18.697125 C22.16495,19.111125 21.9657,19.523375 21.7757,19.939875 C21.73245,20.034375 21.6832,20.068375 21.57745,20.068125 C20.42895,20.063875 19.28045,20.065375 18.1322,20.065375 C18.0837,20.065375 18.03545,20.065375 17.9527,20.065375 C18.67845,21.043625 19.6142,21.582375 20.81045,21.613625 C22.0102,21.644875 22.97495,21.145375 23.7482,20.211125 C23.75245,20.265125 23.75745,20.298625 23.75745,20.332125 C23.75795,20.887875 23.7562,21.443625 23.75945,21.999375 C23.75995,22.076625 23.73595,22.123375 23.6737,22.170125 C21.62445,23.715875 18.72995,23.475375 16.9632,21.607125 C16.56445,21.185375 16.2432,20.709375 16.01445,20.174375 C15.97895,20.091125 15.93595,20.062125 15.8442,20.063125 C15.3572,20.068125 14.8702,20.065375 14.3832,20.065375 C14.33895,20.065375 14.2947,20.065375 14.23445,20.065375 C14.2502,20.020625 14.2597,19.987125 14.2737,19.955625 C14.46495,19.526375 14.65845,19.098125 14.84695,18.667875 C14.8792,18.593625 14.9182,18.563875 15.0007,18.566625 C15.1947,18.572875 15.3887,18.568625 15.5877,18.568625" id="Fill-32" fill="#FFFFFF"></path>
                        <path d="M38.50725,19.362375 L36.03725,19.362375 C36.447,17.957375 36.854,16.562125 37.261,15.167125 C37.271,15.165625 37.28075,15.164125 37.29075,15.162625 C37.695,16.558125 38.09925,17.953625 38.50725,19.362375" id="Fill-34" fill="#757575"></path>
                        <path d="M27.4191,18.204825 L27.4191,15.204825 L27.5481,15.204825 C28.1321,15.204825 28.7161,15.202075 29.29985,15.206075 C29.55685,15.207825 29.80785,15.246075 30.0401,15.369075 C30.2336,15.471325 30.3401,15.630325 30.38085,15.843575 C30.49935,16.460825 30.4726,17.077825 30.37835,17.693825 C30.34685,17.900575 30.19485,18.023325 30.0081,18.073575 C29.77135,18.137325 29.5266,18.198575 29.28335,18.206325 C28.6881,18.225075 28.0916,18.212575 27.4956,18.212075 C27.4721,18.212075 27.44885,18.207825 27.4191,18.204825" id="Fill-36" fill="#757575"></path>
                    </g>
                </g>
            </g>
        </g>
    </g>
</svg>