<?xml version="1.0" encoding="UTF-8"?>
<svg width="48px" height="37px" viewBox="0 0 48 37" version="1.1" xmlns="http://www.w3.org/2000/svg" xmlns:xlink="http://www.w3.org/1999/xlink">
    <!-- Generator: Sketch 55.2 (78181) - https://sketchapp.com -->
    <title>Group 10</title>
    <desc>Created with Sketch.</desc>
    <g id="Persönlicher-Bereich_closed" stroke="none" stroke-width="1" fill="none" fill-rule="evenodd">
        <g id="11:-Mietprozess-8-Zahlung-DP" transform="translate(-1025.000000, -670.000000)">
            <g id="Group-5-Copy" transform="translate(1025.000000, 670.000000)">
                <g id="Group-10">
                    <g id="Group-3" transform="translate(0.000000, 0.217000)" fill="#757575">
                        <path d="M43.148075,0.036325 C44.766325,0.037825 45.980575,0.755825 46.757575,2.180575 C47.088575,2.787325 47.197075,3.451825 47.197075,4.139075 C47.195825,13.185825 47.196325,22.232575 47.196075,31.279325 C47.196075,31.794575 47.200575,32.310075 47.195075,32.825325 C47.174325,34.708325 45.907325,36.268575 44.067575,36.663825 C43.796825,36.722075 43.513825,36.746325 43.236575,36.746575 C32.687075,36.750575 22.137825,36.750095 11.588325,36.750095 C9.055075,36.750095 6.521575,36.750095 3.988325,36.750095 C1.933575,36.750095 0.291575,35.319325 0.033575,33.282325 C-0.016175,32.890325 0.004075,32.488825 0.004075,32.091575 C0.003075,22.753075 0.003325,13.414575 0.004325,4.075825 C0.004575,2.366325 0.792575,1.144575 2.314325,0.391075 C2.869825,0.115825 3.470825,0.033325 4.086325,0.033325 C10.494075,0.034075 36.634575,0.030325 43.148075,0.036325" id="Fill-1"></path>
                    </g>
                    <polygon id="Fill-6" fill="#FFFFFF" points="37.4873 14.41465 30.9878 8.1759 30.9878 11.8414 20.29455 11.8414 20.29455 16.9879 30.9878 16.9879 30.9878 20.6534"></polygon>
                    <polygon id="Fill-8" fill="#FFFFFF" points="10.678025 21.457975 17.177525 27.696725 17.177525 24.031225 27.870775 24.031225 27.870775 18.884725 17.177525 18.884725 17.177525 15.219225"></polygon>
                </g>
            </g>
        </g>
    </g>
</svg>