<?xml version="1.0" encoding="utf-8"?>
<!-- Generator: Adobe Illustrator 14.0.0, SVG Export Plug-In . SVG Version: 6.00 Build 43363)  -->
<!DOCTYPE svg PUBLIC "-//W3C//DTD SVG 1.1//EN" "http://www.w3.org/Graphics/SVG/1.1/DTD/svg11.dtd">
<svg version="1.1" id="Ebene_1" xmlns="http://www.w3.org/2000/svg" xmlns:xlink="http://www.w3.org/1999/xlink" x="0px" y="0px"
	 width="100px" height="100px" viewBox="0 0 100 100" enable-background="new 0 0 100 100" xml:space="preserve">
<title>Group 11</title>
<desc>Created with Sketch.</desc>
<title>Help</title>
<desc>Created with Sketch.</desc>
<ellipse id="Oval" fill="#BABABA" cx="50" cy="50" rx="49" ry="48.444"/>
<g>
	<path fill="#FFFFFF" d="M43.519,70.788c0-0.884,0.166-1.706,0.497-2.467c0.332-0.761,0.785-1.424,1.363-1.989
		c0.576-0.563,1.257-1.011,2.043-1.343c0.786-0.331,1.645-0.497,2.578-0.497c0.909,0,1.756,0.166,2.543,0.497
		c0.785,0.332,1.471,0.779,2.061,1.343c0.59,0.565,1.049,1.229,1.381,1.989c0.33,0.761,0.496,1.583,0.496,2.467
		c0,0.886-0.166,1.714-0.496,2.486c-0.332,0.772-0.791,1.442-1.381,2.006c-0.59,0.567-1.275,1.008-2.061,1.326
		c-0.787,0.318-1.634,0.479-2.543,0.479c-0.933,0-1.792-0.161-2.578-0.479c-0.786-0.318-1.467-0.759-2.043-1.326
		c-0.578-0.563-1.031-1.233-1.363-2.006C43.685,72.502,43.519,71.674,43.519,70.788z M55.449,22.914v21.065
		c0,2.26-0.133,4.499-0.404,6.721c-0.27,2.222-0.627,4.488-1.066,6.795h-7.734c-0.442-2.308-0.798-4.573-1.068-6.795
		c-0.27-2.222-0.405-4.461-0.405-6.721V22.914H55.449z"/>
</g>
</svg>
