<?xml version="1.0" encoding="utf-8"?>
<!-- Generator: Adobe Illustrator 14.0.0, SVG Export Plug-In . SVG Version: 6.00 Build 43363)  -->
<!DOCTYPE svg PUBLIC "-//W3C//DTD SVG 1.1//EN" "http://www.w3.org/Graphics/SVG/1.1/DTD/svg11.dtd">
<svg version="1.1" id="Ebene_1" xmlns="http://www.w3.org/2000/svg" xmlns:xlink="http://www.w3.org/1999/xlink" x="0px" y="0px"
	 width="100px" height="100px" viewBox="0 0 100 100" enable-background="new 0 0 100 100" xml:space="preserve">
<g>
	<path d="M15.3,84.7C24.9,94.2,36.5,99,50,99s25.1-4.8,34.7-14.3C94.2,75.1,99,63.5,99,50s-4.8-25.1-14.3-34.7C75.1,5.8,63.5,1,50,1
		S24.9,5.8,15.3,15.3C5.8,24.9,1,36.5,1,50S5.8,75.1,15.3,84.7z M75.3,57.6L70,63L50,43L30,63l-5.2-5.4L50,32.3L75.3,57.6z"/>
</g>
</svg>
