<?xml version="1.0" encoding="utf-8"?>
<!-- Generator: Adobe Illustrator 14.0.0, SVG Export Plug-In . SVG Version: 6.00 Build 43363)  -->
<!DOCTYPE svg PUBLIC "-//W3C//DTD SVG 1.1//EN" "http://www.w3.org/Graphics/SVG/1.1/DTD/svg11.dtd">
<svg version="1.1" id="Ebene_1" xmlns="http://www.w3.org/2000/svg" xmlns:xlink="http://www.w3.org/1999/xlink" x="0px" y="0px"
	 width="100px" height="100px" viewBox="0 0 100 100" enable-background="new 0 0 100 100" xml:space="preserve">
<g>
	<path fill="#FFFFFF" d="M84.7,15.3C75.1,5.8,63.5,1,50,1S24.9,5.8,15.3,15.3C5.8,24.9,1,36.5,1,50s4.8,25.1,14.3,34.7
		C24.9,94.2,36.5,99,50,99s25.1-4.8,34.7-14.3C94.2,75.1,99,63.5,99,50S94.2,24.9,84.7,15.3z M24.7,42.4L30,37l20,20l20-20l5.2,5.4
		L50,67.7L24.7,42.4z"/>
</g>
</svg>
