<?xml version="1.0" encoding="utf-8"?>
<!-- Generator: Adobe Illustrator 14.0.0, SVG Export Plug-In . SVG Version: 6.00 Build 43363)  -->
<!DOCTYPE svg PUBLIC "-//W3C//DTD SVG 1.1//EN" "http://www.w3.org/Graphics/SVG/1.1/DTD/svg11.dtd">
<svg version="1.1" id="Ebene_1" xmlns="http://www.w3.org/2000/svg" xmlns:xlink="http://www.w3.org/1999/xlink" x="0px" y="0px"
	 width="100px" height="100px" viewBox="0 0 100 100" enable-background="new 0 0 100 100" xml:space="preserve">
<title>Group 11</title>
<desc>Created with Sketch.</desc>
<title>Help</title>
<desc>Created with Sketch.</desc>
<g enable-background="new    ">
	<path fill="#FFFFFF" d="M36.217,27.295c0.811-0.716,1.7-1.396,2.667-2.038c0.965-0.643,2.007-1.201,3.129-1.68
		c1.118-0.475,2.332-0.853,3.646-1.127c1.308-0.275,2.728-0.41,4.253-0.41c2.07,0,3.967,0.284,5.668,0.856
		c1.705,0.572,3.162,1.388,4.378,2.449c1.219,1.06,2.158,2.341,2.824,3.844c0.667,1.5,1,3.18,1,5.041
		c0,1.812-0.259,3.374-0.787,4.701c-0.524,1.322-1.188,2.473-1.984,3.449c-0.798,0.979-1.659,1.82-2.588,2.536
		c-0.933,0.718-1.812,1.388-2.645,2.021c-0.84,0.633-1.556,1.253-2.165,1.857c-0.61,0.609-0.972,1.294-1.096,2.056l-0.817,5.222
		h-6.041l-0.61-5.831c-0.024-0.115-0.033-0.218-0.033-0.302c0-0.083,0-0.186,0-0.303c0-1.046,0.261-1.958,0.787-2.736
		c0.521-0.772,1.179-1.498,1.964-2.179c0.786-0.679,1.634-1.34,2.537-1.982c0.908-0.647,1.753-1.34,2.54-2.095
		c0.787-0.748,1.442-1.601,1.964-2.555c0.528-0.955,0.787-2.071,0.787-3.361c0-0.856-0.163-1.624-0.479-2.305
		c-0.326-0.679-0.773-1.26-1.34-1.749c-0.578-0.489-1.259-0.866-2.058-1.127c-0.802-0.264-1.661-0.396-2.594-0.396
		c-1.358,0-2.507,0.149-3.448,0.447c-0.944,0.298-1.74,0.633-2.396,1.001c-0.657,0.372-1.21,0.702-1.662,1
		c-0.452,0.299-0.856,0.448-1.214,0.448c-0.858,0-1.481-0.36-1.857-1.07L36.217,27.295z M42.977,69.442
		c0-0.741,0.135-1.443,0.409-2.113c0.274-0.666,0.656-1.236,1.145-1.712c0.489-0.479,1.067-0.861,1.732-1.145
		c0.67-0.284,1.382-0.429,2.146-0.429c0.739,0,1.443,0.145,2.109,0.429c0.67,0.283,1.242,0.666,1.716,1.145
		c0.481,0.476,0.861,1.046,1.145,1.712c0.283,0.67,0.429,1.372,0.429,2.113c0,0.758-0.146,1.471-0.429,2.123
		c-0.283,0.655-0.663,1.223-1.145,1.697c-0.474,0.482-1.046,0.854-1.716,1.127c-0.666,0.277-1.37,0.415-2.109,0.415
		c-0.764,0-1.476-0.138-2.146-0.415c-0.665-0.272-1.243-0.645-1.732-1.127c-0.488-0.475-0.87-1.042-1.145-1.697
		C43.111,70.913,42.977,70.2,42.977,69.442z"/>
</g>
<path fill="#FFFFFF" d="M50,99C22.981,99,1,77.021,1,50C1,22.981,22.981,1,50,1c27.021,0,49,21.981,49,49C99,77.021,77.021,99,50,99
	L50,99z M50,4.629C24.982,4.629,4.63,24.982,4.63,50S24.982,95.37,50,95.37S95.37,75.018,95.37,50S75.018,4.629,50,4.629L50,4.629z"
	/>
</svg>
