<?xml version="1.0" encoding="utf-8"?>
<!-- Generator: Adobe Illustrator 14.0.0, SVG Export Plug-In . SVG Version: 6.00 Build 43363)  -->
<!DOCTYPE svg PUBLIC "-//W3C//DTD SVG 1.1//EN" "http://www.w3.org/Graphics/SVG/1.1/DTD/svg11.dtd">
<svg version="1.1" id="Ebene_1" xmlns="http://www.w3.org/2000/svg" xmlns:xlink="http://www.w3.org/1999/xlink" x="0px" y="0px"
	 width="100px" height="360px" viewBox="0 0 100 360" enable-background="new 0 0 100 360" xml:space="preserve">
<g>
	<g id="Persönlicher-Bereich_closed">
		<g id="_x32_:-Login-DP" transform="translate(-1569.000000, -226.000000)">
			<g id="Group-16" transform="translate(1562.000000, 215.000000)">
				<path fill="#FFFFFF" d="M99.358,131.524l-28.428-28.373H36.955c-12.305,0-22.313-10.01-22.313-22.313v-25
					C14.641,43.534,24.65,33.524,36.955,33.524h40.091c12.303,0,22.312,10.01,22.312,22.313V131.524L99.358,131.524z M36.955,38.484
					c-9.569,0-17.354,7.784-17.354,17.354v25c0,9.567,7.784,17.354,17.354,17.354h36.026l21.416,21.379V55.837
					c0-9.569-7.785-17.354-17.352-17.354L36.955,38.484L36.955,38.484z"/>
			</g>
		</g>
	</g>
	<g>
		<path fill="#FFFFFF" d="M59.011,296.431c5.51,0.521,9.809,2.555,12.895,6.102c3.086,3.548,4.629,8.266,4.629,14.154
			c0,4.115-0.975,7.74-2.926,10.873c-1.951,3.135-4.725,5.553-8.319,7.256c-3.595,1.702-7.769,2.589-12.522,2.66h-4.824
			c-4.872,0-9.165-0.863-12.878-2.59s-6.574-4.203-8.585-7.432c-2.01-3.229-3.016-6.959-3.016-11.193
			c0-5.699,1.544-10.287,4.63-13.764s7.456-5.498,13.107-6.066v8.939c-3.712,0.426-6.391,1.508-8.034,3.246
			s-2.466,4.287-2.466,7.645c0,3.902,1.426,6.9,4.278,8.994c2.853,2.092,7.037,3.162,12.553,3.21h4.58
			c5.586,0,9.848-0.999,12.783-2.997c2.936-1.999,4.402-4.926,4.402-8.781c0-3.523-0.792-6.172-2.377-7.945
			c-1.584-1.774-4.221-2.896-7.91-3.371V296.431z"/>
		<path fill="#FFFFFF" d="M75.825,247.405v8.939H52.909v23.094h22.916v8.975H24.174v-8.975h21.498v-23.094H24.174v-8.939H75.825z"/>
		<path fill="#FFFFFF" d="M63.8,207.247v20.008l12.025,4.187v9.329L24.174,221.26v-8.053l51.651-19.546v9.365L63.8,207.247z
			 M56.562,224.736v-14.97l-21.427,7.484L56.562,224.736z"/>
		<path fill="#FFFFFF" d="M31.41,154.745v16.105h44.415v8.904H31.41v15.963h-7.236v-40.973H31.41z"/>
	</g>
</g>
</svg>
