<?xml version="1.0" encoding="utf-8"?>
<!-- Generator: Adobe Illustrator 14.0.0, SVG Export Plug-In . SVG Version: 6.00 Build 43363)  -->
<!DOCTYPE svg PUBLIC "-//W3C//DTD SVG 1.1//EN" "http://www.w3.org/Graphics/SVG/1.1/DTD/svg11.dtd">
<svg version="1.1" id="Ebene_1" xmlns="http://www.w3.org/2000/svg" xmlns:xlink="http://www.w3.org/1999/xlink" x="0px" y="0px"
	 width="100px" height="100px" viewBox="0 0 100 100" enable-background="new 0 0 100 100" xml:space="preserve">
<title>Group 11</title>
<desc>Created with Sketch.</desc>
<g>
	<title>Group 9 Copy 4</title>
	<desc>Created with Sketch.</desc>
	<g id="Persönlicher-Bereich_closed">
		<g id="_x31_2:-Rechnungsadressen-DP" transform="translate(-702.000000, -334.000000)">
			<g id="Group-9-Copy-4" transform="translate(703.000000, 335.000000)">
				<path fill="#BABABA" d="M81.038,98H16.962C7.609,98,0,90.391,0,81.038V16.962C0,7.609,7.609,0,16.962,0h64.076
					C90.391,0,98,7.609,98,16.962v64.076C98,90.391,90.391,98,81.038,98L81.038,98z M16.962,3.769
					c-7.275,0-13.193,5.917-13.193,13.193v64.076c0,7.273,5.917,13.192,13.193,13.192h64.076c7.273,0,13.192-5.919,13.192-13.192
					V16.962c0-7.275-5.919-13.193-13.192-13.193H16.962L16.962,3.769z"/>
				
					<g id="shutterstock_429182746" transform="translate(15.250000, 16.000000) scale(1, -1) rotate(-180.000000) translate(-15.250000, -16.000000) translate(6.750000, 5.000000)">
					<path id="Fill-1" fill="#BABABA" d="M-28.612,14.386h6.725c1.733,0,3.151,2.27,3.151,5.044h-9.876c-1.733,0-3.151,0-3.151,0
						C-31.764,16.655-30.346,14.386-28.612,14.386z M-6.163,19.506h-8.799c0-0.025,0.002-0.05,0.002-0.076
						c0-2.017-0.526-3.969-1.482-5.5c-1.291-2.064-3.275-3.25-5.445-3.25h-6.725c-2.169,0-4.153,1.186-5.445,3.25
						c-0.956,1.531-1.482,3.483-1.482,5.5c0,0.026,0,0.051,0,0.076h-8.796c-3.527,0-6.395,2.814-6.395,6.275
						c0,2.162,1.121,4.073,2.824,5.201l2.603,37.229c0.037,5.029,3.93,9.108,8.713,9.108h22.682c4.783,0,8.677-4.079,8.713-9.108
						l2.604-37.229c1.701-1.128,2.822-3.039,2.822-5.201C0.23,22.32-2.638,19.506-6.163,19.506z"/>
				</g>
			</g>
		</g>
	</g>
</g>
</svg>
