<?xml version="1.0" encoding="utf-8"?>
<!-- Generator: Adobe Illustrator 14.0.0, SVG Export Plug-In . SVG Version: 6.00 Build 43363)  -->
<!DOCTYPE svg PUBLIC "-//W3C//DTD SVG 1.1//EN" "http://www.w3.org/Graphics/SVG/1.1/DTD/svg11.dtd">
<svg version="1.1" id="Ebene_1" xmlns="http://www.w3.org/2000/svg" xmlns:xlink="http://www.w3.org/1999/xlink" x="0px" y="0px"
	 width="100px" height="100px" viewBox="0 0 100 100" enable-background="new 0 0 100 100" xml:space="preserve">
<title>Group 11</title>
<desc>Created with Sketch.</desc>
<g>
	<title>Group 9 Copy 4</title>
	<desc>Created with Sketch.</desc>
	<g id="Persönlicher-Bereich_closed">
		<g id="_x31_2:-Rechnungsadressen-DP" transform="translate(-702.000000, -334.000000)">
			<g id="Group-9-Copy-4" transform="translate(703.000000, 335.000000)">
				<g id="Group-3-Copy" transform="translate(5.000000, 5.000000)">
					<polygon id="Fill-1" fill="#BABABA" points="15.866,57.619 11.962,76.038 30.382,72.134 					"/>
					<path id="Fill-1_1_" fill="#BABABA" d="M61.474,12.007L41.959,31.524L19.636,53.85l14.516,14.515l22.322-22.323l19.518-19.518
						c0,0,0.86-4.269-4.759-9.758C65.623,11.155,61.474,12.007,61.474,12.007z"/>
				</g>
				<path fill="#BABABA" d="M81.038,98H16.962C7.609,98,0,90.391,0,81.038V16.962C0,7.609,7.609,0,16.962,0h64.076
					C90.391,0,98,7.609,98,16.962v64.076C98,90.391,90.391,98,81.038,98L81.038,98z M16.962,3.769
					c-7.275,0-13.193,5.917-13.193,13.193v64.076c0,7.273,5.917,13.192,13.193,13.192h64.076c7.273,0,13.192-5.919,13.192-13.192
					V16.962c0-7.275-5.919-13.193-13.192-13.193H16.962L16.962,3.769z"/>
			</g>
		</g>
	</g>
</g>
</svg>
