<?xml version="1.0" encoding="utf-8"?>
<!-- Generator: Adobe Illustrator 14.0.0, SVG Export Plug-In . SVG Version: 6.00 Build 43363)  -->
<!DOCTYPE svg PUBLIC "-//W3C//DTD SVG 1.1//EN" "http://www.w3.org/Graphics/SVG/1.1/DTD/svg11.dtd">
<svg version="1.1" id="Ebene_1" xmlns="http://www.w3.org/2000/svg" xmlns:xlink="http://www.w3.org/1999/xlink" x="0px" y="0px"
	 width="100px" height="100px" viewBox="0 0 100 100" enable-background="new 0 0 100 100" xml:space="preserve">
<title>Group 11</title>
<desc>Created with Sketch.</desc>
<title>Help</title>
<desc>Created with Sketch.</desc>
<ellipse id="Oval_1_" opacity="0.01" fill="#FFFFFF" cx="50" cy="50" rx="49" ry="48.444"/>
<path fill="#BABABA" d="M50,99.443C22.43,99.443,0,77.263,0,50C0,22.737,22.43,0.556,50,0.556S100,22.737,100,50
	C100,77.263,77.57,99.443,50,99.443L50,99.443z M50,2.556C23.533,2.556,2,23.839,2,50c0,26.16,21.533,47.443,48,47.443
	c26.468,0,48-21.283,48-47.443C98,23.839,76.468,2.556,50,2.556L50,2.556z"/>
<g>
	<path fill="#BABABA" d="M56.48,29.211c0,0.884-0.166,1.706-0.498,2.468c-0.332,0.76-0.783,1.424-1.361,1.988
		c-0.576,0.562-1.258,1.012-2.043,1.343c-0.787,0.331-1.646,0.497-2.579,0.497c-0.909,0-1.756-0.166-2.543-0.497
		c-0.785-0.331-1.471-0.778-2.061-1.343s-1.049-1.229-1.381-1.988c-0.33-0.762-0.496-1.584-0.496-2.468
		c0-0.886,0.166-1.714,0.496-2.485c0.332-0.772,0.791-1.442,1.381-2.006c0.59-0.568,1.274-1.009,2.061-1.326
		c0.787-0.318,1.634-0.479,2.543-0.479c0.933,0,1.792,0.161,2.579,0.479c0.785,0.317,1.467,0.758,2.043,1.326
		c0.578,0.562,1.029,1.232,1.361,2.006C56.314,27.497,56.48,28.325,56.48,29.211z M44.55,77.085V56.02
		c0-2.26,0.133-4.498,0.404-6.721c0.27-2.222,0.627-4.487,1.066-6.795h7.733c0.442,2.308,0.799,4.573,1.067,6.795
		c0.271,2.223,0.406,4.461,0.406,6.723v21.063H44.55z"/>
</g>
</svg>
