<?xml version="1.0" encoding="utf-8"?>
<!-- Generator: Adobe Illustrator 14.0.0, SVG Export Plug-In . SVG Version: 6.00 Build 43363)  -->
<!DOCTYPE svg PUBLIC "-//W3C//DTD SVG 1.1//EN" "http://www.w3.org/Graphics/SVG/1.1/DTD/svg11.dtd">
<svg version="1.1" id="Ebene_1" xmlns="http://www.w3.org/2000/svg" xmlns:xlink="http://www.w3.org/1999/xlink" x="0px" y="0px"
	 width="100px" height="100px" viewBox="0 0 100 100" enable-background="new 0 0 100 100" xml:space="preserve">
<g id="Group-3" transform="translate(62.500000, 0.000000)">
	<path id="Rectangle" fill="#BABABA" d="M-39.535,1h38.678l25.529,24.103v63.76C24.672,94.461,20.133,99,14.535,99h-54.07
		c-5.598,0-10.137-4.539-10.137-10.138V11.139C-49.672,5.54-45.133,1-39.535,1z"/>
	<g enable-background="new    ">
		<path fill="#FFFFFF" d="M-32.81,53.882v6.566h-4.559V40.803h6.93c1.386,0,2.574,0.164,3.569,0.491
			c0.992,0.329,1.809,0.781,2.454,1.355c0.643,0.574,1.114,1.254,1.42,2.036c0.306,0.783,0.46,1.627,0.46,2.534
			c0,0.981-0.157,1.881-0.472,2.697c-0.315,0.818-0.797,1.52-1.442,2.104c-0.648,0.584-1.47,1.039-2.462,1.366
			c-0.992,0.328-2.168,0.494-3.527,0.494H-32.81z M-32.81,50.442h2.371c1.188,0,2.041-0.281,2.564-0.849
			c0.521-0.566,0.782-1.357,0.782-2.374c0-0.447-0.068-0.855-0.203-1.225c-0.137-0.369-0.34-0.688-0.613-0.952
			c-0.276-0.266-0.621-0.469-1.039-0.614c-0.418-0.143-0.914-0.216-1.491-0.216h-2.371V50.442z"/>
		<path fill="#FFFFFF" d="M-2.338,50.62c0,1.419-0.244,2.729-0.732,3.932c-0.488,1.197-1.182,2.239-2.07,3.114
			c-0.891,0.875-1.963,1.56-3.217,2.049c-1.252,0.488-2.648,0.733-4.175,0.733h-7.632V40.803h7.632c1.527,0,2.923,0.247,4.175,0.742
			c1.254,0.493,2.326,1.178,3.217,2.049c0.889,0.872,1.582,1.909,2.07,3.108S-2.338,49.207-2.338,50.62z M-7.004,50.62
			c0-0.971-0.125-1.848-0.373-2.631C-7.635,47.207-7.994,46.544-8.465,46c-0.473-0.544-1.051-0.96-1.734-1.255
			c-0.682-0.29-1.461-0.436-2.333-0.436h-3.046v12.633h3.046c0.872,0,1.652-0.146,2.333-0.436c0.684-0.293,1.262-0.713,1.734-1.256
			c0.471-0.543,0.83-1.208,1.088-1.99C-7.129,52.479-7.004,51.6-7.004,50.62z"/>
		<path fill="#FFFFFF" d="M12.494,40.803v3.507H4.43v4.976h6.717v3.521H4.43v7.642h-4.582V40.803H12.494z"/>
	</g>
</g>
</svg>
