<?xml version="1.0" encoding="UTF-8"?>
<svg width="22px" height="24px" viewBox="0 0 22 24" version="1.1" xmlns="http://www.w3.org/2000/svg" xmlns:xlink="http://www.w3.org/1999/xlink">
    <!-- Generator: Sketch 55.2 (78181) - https://sketchapp.com -->
    <title>iconmonstr-phone-6</title>
    <desc>Created with Sketch.</desc>
    <g id="Page-1" stroke="none" stroke-width="1" fill="none" fill-rule="evenodd">
        <g id="01_Startseite" transform="translate(-238.000000, -109.000000)" fill="#000000" fill-rule="nonzero">
            <g id="page-title" transform="translate(0.000000, 96.062242)">
                <g id="Group-4" transform="translate(238.000000, 11.502976)">
                    <g id="iconmonstr-phone-6" transform="translate(0.000000, 1.434783)">
                        <path d="M13.8900163,23.654 C6.52301629,27.021 -4.91198371,4.794 2.28901629,1.039 L4.39601629,0 L7.88801629,6.817 L5.80601629,7.843 C3.61701629,9.017 8.17601629,17.923 10.4150163,16.837 C10.5060163,16.796 12.4720163,15.83 12.4790163,15.826 L16.0000163,22.621 C15.9920163,22.625 14.0110163,23.599 13.8900163,23.654 L13.8900163,23.654 Z M12.3520163,10.245 L15.2690163,11.115 C15.4920163,10.368 15.4290163,9.536 15.0290163,8.798 C14.6300163,8.059 13.9670163,7.551 13.2210163,7.329 L12.3520163,10.245 L12.3520163,10.245 Z M14.1560163,4.187 C15.7070163,4.649 17.0820163,5.703 17.9120163,7.238 C18.7430163,8.774 18.8720163,10.501 18.4100163,12.051 L16.6150163,11.516 C16.9400163,10.425 16.8480163,9.21 16.2630163,8.129 C15.6800163,7.048 14.7120163,6.307 13.6200163,5.983 L14.1560163,4.187 L14.1560163,4.187 Z M15.1060163,1 C17.4710163,1.705 19.5690163,3.312 20.8350163,5.656 C22.1040163,7.999 22.3010163,10.634 21.5960163,13 L19.7560163,12.452 C20.3200163,10.557 20.1620163,8.446 19.1480163,6.57 C18.1320163,4.693 16.4520163,3.405 14.5570163,2.841 L15.1060163,1 L15.1060163,1 Z" id="Shape"></path>
                    </g>
                </g>
            </g>
        </g>
    </g>
</svg>