<?xml version="1.0" encoding="utf-8"?>
<!-- Generator: Adobe Illustrator 14.0.0, SVG Export Plug-In . SVG Version: 6.00 Build 43363)  -->
<!DOCTYPE svg PUBLIC "-//W3C//DTD SVG 1.1//EN" "http://www.w3.org/Graphics/SVG/1.1/DTD/svg11.dtd">
<svg version="1.1" id="Ebene_1" xmlns="http://www.w3.org/2000/svg" xmlns:xlink="http://www.w3.org/1999/xlink" x="0px" y="0px"
	 width="42px" height="43px" viewBox="0 0 42 43" enable-background="new 0 0 42 43" xml:space="preserve">
<title>Group 5</title>
<desc>Created with Sketch.</desc>
<g>
	<path fill="#FFFFFF" d="M21,0.5c-5.8,0-10.7,2.1-14.8,6.2C2,10.9,0,15.8,0,21.6c0,5.7,2,10.7,6.2,14.7c4.1,4.2,9,6.2,14.8,6.2
		s10.7-2,14.9-6.2c4.1-4,6.1-9,6.1-14.7C42,15.8,40,10.9,35.9,6.7C31.7,2.6,26.8,0.5,21,0.5z M23.1,14.1v5.4h5.4v4.1h-5.4v5.5H18.9
		v-5.5h-5.4v-4.1h5.4v-5.4H23.1z"/>
</g>
</svg>
