<?xml version="1.0" encoding="utf-8"?>
<!-- Generator: Adobe Illustrator 14.0.0, SVG Export Plug-In . SVG Version: 6.00 Build 43363)  -->
<!DOCTYPE svg PUBLIC "-//W3C//DTD SVG 1.1//EN" "http://www.w3.org/Graphics/SVG/1.1/DTD/svg11.dtd">
<svg version="1.1" id="Ebene_1" xmlns="http://www.w3.org/2000/svg" xmlns:xlink="http://www.w3.org/1999/xlink" x="0px" y="0px"
	 width="568px" height="100px" viewBox="0 0 568 100" enable-background="new 0 0 568 100" xml:space="preserve">
<g id="Persönlicher-Bereich_closed_1_">
	<g id="Produktdetailseite-Desktop" transform="translate(-214.000000, -924.000000)">
		<g id="Group-17" transform="translate(191.000000, 907.565217)">
			<g id="Group-15">
				<polygon id="Star-Copy" fill="#E0141C" points="75.522,98.693 43.68,115.435 49.761,79.978 24,54.866 59.601,49.694 
					75.522,17.435 91.444,49.694 127.044,54.866 101.283,79.978 107.364,115.435 				"/>
			</g>
		</g>
	</g>
</g>
<g id="Persönlicher-Bereich_closed_2_">
	<g id="Produktdetailseite-Desktop_1_" transform="translate(-214.000000, -924.000000)">
		<g id="Group-17_1_" transform="translate(191.000000, 907.565217)">
			<g id="Group-15_1_">
				<polygon id="Star-Copy_1_" fill="#E0141C" points="191.184,98.693 159.342,115.435 165.423,79.978 139.662,54.866 
					175.263,49.694 191.184,17.435 207.106,49.694 242.706,54.866 216.945,79.978 223.026,115.435 				"/>
			</g>
		</g>
	</g>
</g>
<g id="Persönlicher-Bereich_closed_3_">
	<g id="Produktdetailseite-Desktop_2_" transform="translate(-214.000000, -924.000000)">
		<g id="Group-17_2_" transform="translate(191.000000, 907.565217)">
			<g id="Group-15_2_">
				<polygon id="Star-Copy_2_" fill="#E0141C" points="306.846,98.693 275.004,115.435 281.085,79.978 255.324,54.866 
					290.925,49.694 306.846,17.435 322.768,49.694 358.367,54.866 332.607,79.978 338.688,115.435 				"/>
			</g>
		</g>
	</g>
</g>
<g id="Persönlicher-Bereich_closed_4_">
	<g id="Produktdetailseite-Desktop_3_" transform="translate(-214.000000, -924.000000)">
		<g id="Group-17_3_" transform="translate(191.000000, 907.565217)">
			<g id="Group-15_3_">
				<polygon id="Star-Copy_3_" fill="#E0141C" points="422.508,98.693 390.666,115.435 396.746,79.978 370.986,54.866 
					406.586,49.694 422.508,17.435 438.43,49.694 474.029,54.866 448.27,79.978 454.35,115.435 				"/>
			</g>
		</g>
	</g>
</g>
<g id="Persönlicher-Bereich_closed_5_">
	<g id="Produktdetailseite-Desktop_4_" transform="translate(-214.000000, -924.000000)">
		<g id="Group-17_4_" transform="translate(191.000000, 907.565217)">
			<g id="Group-15_4_">
				<polygon id="Star-Copy_4_" fill="#E0141C" points="538.17,98.693 506.328,115.435 512.408,79.978 486.646,54.866 
					522.248,49.694 538.17,17.435 554.092,49.694 589.691,54.866 563.93,79.978 570.012,115.435 				"/>
			</g>
		</g>
	</g>
</g>
</svg>
