<?xml version="1.0" encoding="utf-8"?>
<!-- Generator: Adobe Illustrator 14.0.0, SVG Export Plug-In . SVG Version: 6.00 Build 43363)  -->
<!DOCTYPE svg PUBLIC "-//W3C//DTD SVG 1.1//EN" "http://www.w3.org/Graphics/SVG/1.1/DTD/svg11.dtd">
<svg version="1.1" id="Ebene_1" xmlns="http://www.w3.org/2000/svg" xmlns:xlink="http://www.w3.org/1999/xlink" x="0px" y="0px"
	 width="100px" height="100px" viewBox="0 0 100 100" enable-background="new 0 0 100 100" xml:space="preserve">
<title>Group 10</title>
<desc>Created with Sketch.</desc>
<g id="Persönlicher-Bereich_closed">
	<g id="_x31_:-Navigation-DP" transform="translate(-743.000000, -1679.000000)">
		<g id="Group-19-Copy" transform="translate(1.000000, 986.000000)">
			<g id="Group-18" transform="translate(0.000000, 346.000000)">
				<g id="Group-10" transform="translate(742.999549, 348.000000)">
					<g id="Group-3">
						<path fill="#FFFFFF" d="M49.001,98C21.982,98,0,76.018,0,49C0,21.981,21.982,0,49.001,0s49,21.981,49,49
							C98,76.018,76.02,98,49.001,98L49.001,98z M49.001,2.178C23.183,2.178,2.178,23.183,2.178,49
							c0,25.818,21.005,46.823,46.823,46.823c25.817,0,46.82-21.005,46.82-46.823C95.823,23.183,74.819,2.178,49.001,2.178
							L49.001,2.178z"/>
					</g>
					<path id="Fill-4" fill="#FFFFFF" d="M63.872,30.875c-1.817,0-3.293,1.475-3.293,3.293s1.476,3.293,3.293,3.293
						c1.818,0,3.295-1.475,3.295-3.293S65.691,30.875,63.872,30.875"/>
					<path id="Fill-6" fill="#FFFFFF" d="M49.231,57.797c-4.886,0-8.86-3.979-8.86-8.863c0-4.89,3.975-8.864,8.86-8.864
						c4.887,0,8.859,3.975,8.859,8.864C58.09,53.818,54.118,57.797,49.231,57.797 M49.231,35.1c-7.628,0-13.834,6.205-13.834,13.834
						c0,7.628,6.206,13.833,13.834,13.833c7.63,0,13.836-6.205,13.836-13.833C63.067,41.305,56.861,35.1,49.231,35.1"/>
					<path id="Fill-8" fill="#FFFFFF" d="M37.787,26.129c-6.39,0-11.591,5.197-11.591,11.587v22.431
						c0,6.391,5.201,11.59,11.591,11.59h22.426c6.393,0,11.591-5.199,11.591-11.59V37.716c0-6.39-5.198-11.587-11.591-11.587H37.787
						z M60.211,77.021H37.787c-9.304,0-16.872-7.568-16.872-16.875V37.716c0-9.303,7.568-16.872,16.872-16.872h22.426
						c9.307,0,16.873,7.569,16.873,16.872v22.431C77.084,69.453,69.519,77.021,60.211,77.021L60.211,77.021z"/>
				</g>
			</g>
		</g>
	</g>
</g>
</svg>
