<?xml version="1.0" encoding="utf-8"?>
<!-- Generator: Adobe Illustrator 14.0.0, SVG Export Plug-In . SVG Version: 6.00 Build 43363)  -->
<!DOCTYPE svg PUBLIC "-//W3C//DTD SVG 1.1//EN" "http://www.w3.org/Graphics/SVG/1.1/DTD/svg11.dtd">
<svg version="1.1" id="Ebene_1" xmlns="http://www.w3.org/2000/svg" xmlns:xlink="http://www.w3.org/1999/xlink" x="0px" y="0px"
	 width="100px" height="100px" viewBox="0 0 100 100" enable-background="new 0 0 100 100" xml:space="preserve">
<g>
	<title>Group 8</title>
	<desc>Created with Sketch.</desc>
	<g id="Persönlicher-Bereich_closed">
		<g id="_x31_:-Navigation-DP" transform="translate(-814.000000, -1679.000000)">
			<g id="Group-19-Copy" transform="translate(1.000000, 986.000000)">
				<g id="Group-18" transform="translate(0.000000, 346.000000)">
					<g id="Group-8" transform="translate(813.999549, 348.000000)">
						<g id="Group-3">
							<path fill="#1A171B" d="M49.001,98C21.982,98,0,76.018,0,49C0,21.981,21.982,0,49.001,0s49,21.981,49,49
								C98,76.018,76.02,98,49.001,98L49.001,98z M49.001,2.178C23.183,2.178,2.178,23.183,2.178,49
								c0,25.818,21.005,46.823,46.823,46.823c25.817,0,46.82-21.005,46.82-46.823C95.823,23.183,74.819,2.178,49.001,2.178
								L49.001,2.178z"/>
						</g>
						<path id="Fill-4" fill="#1A171B" d="M33.549,25.264c2.969,0,5.37,2.408,5.37,5.367c0,2.966-2.401,5.378-5.37,5.378
							c-2.976,0-5.381-2.412-5.381-5.378C28.168,27.672,30.574,25.264,33.549,25.264L33.549,25.264z M28.91,69.889h9.279v-29.81
							H28.91V69.889z"/>
						<path id="Fill-6" fill="#1A171B" d="M44,40.077h8.888v4.076h0.121c1.239-2.346,4.265-4.813,8.774-4.813
							c9.381,0,11.11,6.171,11.11,14.2v16.349h-9.26V55.393c0-3.459-0.07-7.904-4.814-7.904c-4.821,0-5.56,3.765-5.56,7.654v14.744
							H44V40.077z"/>
					</g>
				</g>
			</g>
		</g>
	</g>
</g>
</svg>
