<?xml version="1.0" encoding="utf-8"?>
<!-- Generator: Adobe Illustrator 14.0.0, SVG Export Plug-In . SVG Version: 6.00 Build 43363)  -->
<!DOCTYPE svg PUBLIC "-//W3C//DTD SVG 1.1//EN" "http://www.w3.org/Graphics/SVG/1.1/DTD/svg11.dtd">
<svg version="1.1" id="Ebene_1" xmlns="http://www.w3.org/2000/svg" xmlns:xlink="http://www.w3.org/1999/xlink" x="0px" y="0px"
	 width="100px" height="100px" viewBox="0 0 100 100" enable-background="new 0 0 100 100" xml:space="preserve">
<title>Group 13</title>
<desc>Created with Sketch.</desc>
<g id="Persönlicher-Bereich_closed">
	<g id="_x33_:-Formular-_x28_registrierung_x29_-DP" transform="translate(-672.000000, -3760.000000)">
		<g id="Group-19-Copy-2" transform="translate(1.000000, 3067.000000)">
			<g id="Group-18" transform="translate(0.000000, 346.000000)">
				<g id="Group-13" transform="translate(671.999549, 348.000000)">
					<g id="Group-6-Copy">
						<g id="Group-3">
							<path fill="#FFFFFF" d="M49.001,98C21.982,98,0,76.018,0,49C0,21.981,21.982,0,49.001,0s49,21.981,49,49
								C98,76.018,76.02,98,49.001,98L49.001,98z M49.001,2.178C23.183,2.178,2.178,23.183,2.178,49
								c0,25.818,21.005,46.823,46.823,46.823c25.817,0,46.82-21.005,46.82-46.823C95.823,23.183,74.819,2.178,49.001,2.178
								L49.001,2.178z"/>
						</g>
					</g>
					<g id="Group-8" transform="translate(11.148222, 8.182102)">
						<path id="Fill-4" fill="#FFFFFF" d="M48.401,69.709c-0.581-0.11-1.188-0.155-1.734-0.354
							c-0.365-0.133-0.771-0.418-0.953-0.746c-4.144-7.459-8.261-14.936-12.36-22.42c-0.103-0.184-0.032-0.551,0.086-0.76
							c3.238-5.769,6.494-11.53,9.746-17.291c2.971-5.262,5.946-10.518,8.901-15.786c0.616-1.099,1.508-1.631,2.758-1.627
							c2.459,0.007,4.918-0.002,7.375,0.001c0.248,0,0.498,0.017,0.744,0.059c1.135,0.189,1.492,0.908,0.938,1.902
							c-1.033,1.858-2.077,3.714-3.122,5.57C55.71,27.265,50.641,36.274,45.56,45.274c-0.214,0.377-0.226,0.649-0.013,1.039
							c3.76,6.858,7.502,13.729,11.25,20.599c0.957,1.754,0.508,2.551-1.502,2.688c-0.264,0.019-0.522,0.071-0.787,0.106h-6.107
							V69.709z"/>
						<path id="Fill-6" fill="#FFFFFF" d="M19.654,51.894c-1.363,0-2.727,0.006-4.09-0.002c-1.2-0.008-1.641-0.67-1.146-1.758
							c0.246-0.537,0.561-1.047,0.854-1.564c2.535-4.469,5.062-8.944,7.621-13.4c0.398-0.694,0.433-1.275,0.017-1.966
							c-1.382-2.301-2.742-4.616-4.081-6.942c-0.428-0.743-0.826-1.517-1.125-2.319c-0.374-1.003,0.01-1.535,1.074-1.544
							c2.803-0.021,5.605-0.01,8.409-0.006c0.897,0.003,1.605,0.395,2.052,1.165c1.995,3.432,3.977,6.87,5.938,10.32
							c0.096,0.17,0.022,0.512-0.088,0.709c-2.369,4.232-4.757,8.456-7.136,12.684c-0.592,1.053-1.18,2.107-1.739,3.176
							c-0.54,1.039-1.381,1.477-2.53,1.453C22.342,51.873,20.998,51.894,19.654,51.894"/>
					</g>
				</g>
			</g>
		</g>
	</g>
</g>
</svg>
