<?xml version="1.0" encoding="utf-8"?>
<!-- Generator: Adobe Illustrator 14.0.0, SVG Export Plug-In . SVG Version: 6.00 Build 43363)  -->
<!DOCTYPE svg PUBLIC "-//W3C//DTD SVG 1.1//EN" "http://www.w3.org/Graphics/SVG/1.1/DTD/svg11.dtd">
<svg version="1.1" id="Ebene_1" xmlns="http://www.w3.org/2000/svg" xmlns:xlink="http://www.w3.org/1999/xlink" x="0px" y="0px"
	 width="100px" height="100px" viewBox="0 0 100 100" enable-background="new 0 0 100 100" xml:space="preserve">
<title>Group 6</title>
<desc>Created with Sketch.</desc>
<g id="Persönlicher-Bereich_closed">
	<g id="_x33_:-Formular-_x28_registrierung_x29_-DP" transform="translate(-885.000000, -3760.000000)">
		<g id="Group-19-Copy-2" transform="translate(1.000000, 3067.000000)">
			<g id="Group-18" transform="translate(0.000000, 346.000000)">
				<g id="Group-6" transform="translate(884.999549, 348.000000)">
					<g id="Group-3">
						<path fill="#FFFFFF" d="M49.001,98C21.982,98,0,76.018,0,49C0,21.981,21.982,0,49.001,0s49,21.981,49,49
							C98,76.018,76.02,98,49.001,98L49.001,98z M49.001,2.178C23.183,2.178,2.178,23.183,2.178,49
							c0,25.818,21.005,46.823,46.823,46.823c25.817,0,46.82-21.005,46.82-46.823C95.823,23.183,74.819,2.178,49.001,2.178
							L49.001,2.178z"/>
					</g>
					<path id="Fill-4" fill="#FFFFFF" d="M57.35,49.904l-13.192,6.527c-0.518,0.279-2.274-0.094-2.274-0.686V42.351
						c0-0.596,1.773-0.97,2.291-0.675l12.627,6.872C57.331,48.849,57.888,49.613,57.35,49.904L57.35,49.904z M74.653,42.033
						c0-6.354-5.152-11.504-11.506-11.504H33.729c-6.355,0-11.506,5.15-11.506,11.504v13.691c0,6.355,5.15,11.506,11.506,11.506
						h29.418c6.354,0,11.506-5.149,11.506-11.506V42.033z"/>
				</g>
			</g>
		</g>
	</g>
</g>
</svg>
